<svg width="20" height="19" viewBox="0 0 20 19" fill="none" xmlns="http://www.w3.org/2000/svg">
<path d="M17.9219 9.11658L18.9243 7.38405C19.0448 7.1756 19.0776 6.92784 19.0154 6.69524C18.9533 6.46264 18.8013 6.26424 18.5929 6.14367L16.8585 5.1412V3.14352C16.8585 2.9027 16.7629 2.67174 16.5926 2.50145C16.4223 2.33116 16.1913 2.23549 15.9505 2.23549H13.9537L12.9522 0.50205C12.8312 0.294034 12.6332 0.142019 12.401 0.0789059C12.2858 0.0476839 12.1656 0.0396332 12.0473 0.0552203C11.929 0.0708075 11.815 0.109723 11.7118 0.16971L9.97746 1.17218L8.24311 0.168801C8.03455 0.0483938 7.78671 0.0157639 7.55409 0.0780895C7.32148 0.140415 7.12315 0.292591 7.00273 0.501142L6.00026 2.23549H4.00349C3.76267 2.23549 3.5317 2.33116 3.36141 2.50145C3.19113 2.67174 3.09546 2.9027 3.09546 3.14352V5.14029L1.36111 6.14277C1.25762 6.20229 1.16692 6.28168 1.09421 6.37637C1.02149 6.47106 0.968209 6.57918 0.937411 6.69452C0.906613 6.80987 0.89891 6.93016 0.914744 7.04849C0.930578 7.16682 0.969637 7.28086 1.02968 7.38405L2.03215 9.11658L1.02968 10.8491C0.909807 11.0578 0.877284 11.3053 0.9392 11.5379C1.00112 11.7704 1.15245 11.969 1.3602 12.0904L3.09455 13.0929V15.0896C3.09455 15.3305 3.19022 15.5614 3.36051 15.7317C3.5308 15.902 3.76176 15.9977 4.00258 15.9977H6.00026L7.00273 17.732C7.08312 17.8694 7.1979 17.9836 7.33578 18.0632C7.47366 18.1428 7.62988 18.1851 7.78909 18.186C7.94709 18.186 8.10418 18.1443 8.24402 18.0635L9.97655 17.061L11.7109 18.0635C11.9194 18.1837 12.1671 18.2163 12.3996 18.1542C12.6321 18.0921 12.8305 17.9402 12.9513 17.732L13.9528 15.9977H15.9496C16.1904 15.9977 16.4214 15.902 16.5917 15.7317C16.762 15.5614 16.8576 15.3305 16.8576 15.0896V13.0929L18.592 12.0904C18.6953 12.0307 18.7858 11.9512 18.8584 11.8565C18.931 11.7618 18.9842 11.6537 19.015 11.5384C19.0457 11.4232 19.0535 11.3029 19.0378 11.1847C19.0221 11.0664 18.9832 10.9524 18.9234 10.8491L17.9219 9.11658ZM7.70646 4.56732C8.06782 4.56744 8.41433 4.71111 8.66976 4.96671C8.9252 5.22232 9.06863 5.56893 9.06851 5.93029C9.06839 6.29164 8.92473 6.63816 8.66912 6.89359C8.41352 7.14902 8.06691 7.29246 7.70555 7.29234C7.34419 7.29222 6.99768 7.14855 6.74225 6.89295C6.48681 6.63734 6.34338 6.29074 6.3435 5.92938C6.34362 5.56802 6.48728 5.22151 6.74289 4.96607C6.99849 4.71064 7.3451 4.5672 7.70646 4.56732ZM7.97887 13.2845L6.52601 12.1957L11.9742 4.93145L13.4271 6.02018L7.97887 13.2845ZM12.2466 13.6477C12.0677 13.6476 11.8905 13.6123 11.7253 13.5438C11.56 13.4753 11.4098 13.3748 11.2833 13.2483C11.1569 13.1217 11.0565 12.9715 10.9881 12.8062C10.9197 12.6408 10.8845 12.4636 10.8846 12.2847C10.8846 12.1058 10.9199 11.9286 10.9885 11.7633C11.057 11.5981 11.1574 11.4479 11.284 11.3214C11.4105 11.1949 11.5608 11.0946 11.7261 11.0262C11.8914 10.9578 12.0686 10.9226 12.2475 10.9227C12.6089 10.9228 12.9554 11.0664 13.2108 11.3221C13.4663 11.5777 13.6097 11.9243 13.6096 12.2856C13.6095 12.647 13.4658 12.9935 13.2102 13.2489C12.9546 13.5044 12.608 13.6478 12.2466 13.6477Z" fill="#EB5757"/>
</svg>
