<svg width="546" height="530" viewBox="0 0 546 530" fill="none" xmlns="http://www.w3.org/2000/svg">
<path d="M272.708 453.214C389.517 453.214 484.21 447.841 484.21 441.214C484.21 434.587 389.517 429.215 272.708 429.215C155.899 429.215 61.2064 434.587 61.2064 441.214C61.2064 447.841 155.899 453.214 272.708 453.214Z" fill="#F5F5F5"/>
<path d="M210.957 126.829C202.459 133.634 194.158 144.605 199.023 156.509C203.888 168.413 235.02 169.611 241.565 164.713C250.074 158.353 242.558 130.03 235.926 129.861C235.424 119.356 218.058 121.137 210.957 126.829Z" fill="#263238"/>
<path d="M199.055 241.468C199.055 241.468 202.469 301.824 206.233 334.504C206.615 365.191 213.869 434.515 213.869 434.515H221.843C223.184 400.118 233.035 368 226.49 337.663C241.761 278.091 231.3 241.51 231.3 241.51L199.055 241.468Z" fill="#FFB573"/>
<path d="M207.738 241.51C207.738 241.51 224.155 308.46 228.65 336.974C233.384 366.93 240.431 425.06 240.103 434.494H246.986C246.986 434.494 258.549 375.685 247.848 338.034C256.673 253.234 234.9 241.574 234.9 241.574L207.738 241.51Z" fill="#FFB573"/>
<path d="M168.37 164.077C167.858 160.463 161.029 160.155 161.029 160.155L157.757 158.555C157.182 158.213 156.494 158.102 155.836 158.244C155.179 158.386 154.604 158.771 154.233 159.318L153.142 161.078C152.825 161.77 152.772 162.55 152.994 163.277C153.216 164.004 153.698 164.63 154.353 165.042L155.346 165.742C157.035 166.914 159.033 167.595 161.106 167.703L164.127 167.862C164.791 167.899 165.456 167.82 166.091 167.628C166.842 167.399 167.484 166.913 167.896 166.261C168.309 165.608 168.466 164.833 168.338 164.077H168.37Z" fill="#FFB573"/>
<path d="M204.335 185.224C203.921 185.638 203.702 185.839 203.397 186.104L202.535 186.846C201.968 187.313 201.379 187.747 200.801 188.182C199.623 189.03 198.423 189.814 197.19 190.556C194.717 192.003 192.118 193.237 189.423 194.245C184.057 196.273 178.36 197.351 172.603 197.425H172.101C171.838 197.42 171.576 197.398 171.316 197.361C170.803 197.288 170.302 197.157 169.821 196.969C169.012 196.645 168.272 196.178 167.639 195.591C166.82 194.809 166.151 193.889 165.665 192.878C164.985 191.444 164.476 189.94 164.149 188.394C163.57 185.733 163.206 183.032 163.058 180.317C162.763 175.115 162.872 169.899 163.385 164.713C163.446 164.134 163.724 163.596 164.166 163.203C164.608 162.809 165.184 162.588 165.783 162.58C166.383 162.572 166.964 162.778 167.417 163.16C167.87 163.542 168.163 164.072 168.239 164.65V164.713C168.828 169.653 169.505 174.667 170.421 179.469C170.825 181.794 171.382 184.092 172.09 186.348C172.372 187.271 172.76 188.16 173.246 188.998C173.443 189.305 173.639 189.454 173.552 189.348C173.407 189.196 173.228 189.08 173.028 189.009C172.851 188.93 172.664 188.877 172.472 188.85H172.177C174.522 188.641 176.849 188.266 179.137 187.726C181.404 187.176 183.628 186.467 185.791 185.606C187.945 184.71 190.02 183.647 191.998 182.426C192.99 181.832 193.95 181.207 194.878 180.539C195.336 180.211 195.772 179.871 196.208 179.532L196.841 179.023L197.321 178.61L197.605 178.366C198.556 177.538 199.802 177.104 201.078 177.156C202.354 177.208 203.559 177.743 204.435 178.646C205.311 179.548 205.79 180.748 205.769 181.989C205.749 183.229 205.23 184.413 204.324 185.288L204.335 185.224Z" fill="#FFB573"/>
<path d="M209.702 173.458C201.073 172.059 192.019 177.762 187.329 182.405C184.907 189.486 192.663 198.093 192.663 198.093C192.663 198.093 203.713 191.5 207.695 186.995C211.676 182.49 214.676 174.264 209.702 173.458Z" fill="#E0E0E0"/>
<path d="M236.427 240.705C236.427 240.705 248.601 249.1 250.892 277.01C251.808 288.002 253.455 331.854 256.924 350.722C244.434 359.393 207.04 358.206 201.182 353.139C202.841 314.979 187.831 264.364 198.717 241.086C216.738 238.935 236.427 240.705 236.427 240.705Z" fill="#263238"/>
<path opacity="0.2" d="M224.079 320.745C224.243 304.707 221.81 282.638 214.425 269.558C216.945 285.882 224.079 320.745 224.079 320.745Z" fill="black"/>
<path d="M193.001 186.39C193.001 195.475 185.551 200.245 193.983 207.241C194.485 215.085 195.074 229.13 197.55 241.924C200.113 245.39 218.854 245.104 238.325 241.002C235.784 230.031 236.722 212.159 243.387 187.715C243.742 186.359 243.805 184.946 243.572 183.564C243.338 182.183 242.814 180.864 242.032 179.688C241.249 178.513 240.226 177.508 239.025 176.735C237.824 175.962 236.472 175.438 235.053 175.197C233.449 174.921 231.78 174.667 230.013 174.455C223.923 173.582 217.777 173.136 211.622 173.119C209.636 173.119 207.575 173.246 205.611 173.374C202.2 173.578 198.997 175.038 196.655 177.457C194.312 179.875 193.006 183.069 193.001 186.39Z" fill="#E0E0E0"/>
<path d="M232.78 202.163L209.927 207.192C209.058 207.383 208.513 208.223 208.709 209.068L216.108 240.817C216.305 241.662 217.17 242.192 218.04 242L240.892 236.972C241.762 236.78 242.307 235.94 242.11 235.095L234.711 203.346C234.514 202.501 233.65 201.971 232.78 202.163Z" fill="#FF4040"/>
<path d="M213.88 184.832C213.88 184.832 210.182 189.136 207.128 190.132L206.779 192.252C210.641 191.773 214.206 189.986 216.847 187.207L213.88 184.832Z" fill="#FF4040"/>
<path d="M203.833 182.235C203.833 182.235 203.681 187.832 205.273 190.567L204.084 192.39C201.513 189.546 200.053 185.914 199.961 182.129L203.833 182.235Z" fill="#FF4040"/>
<path d="M229.261 154.294C227.799 159.933 226.086 170.331 230.013 174.434C230.013 174.434 215.385 178.313 205.851 191.033C201.488 177.667 211.665 173.098 211.665 173.098C218.33 172.038 218.418 167.31 217.501 162.774L229.261 154.294Z" fill="#FFB573"/>
<path opacity="0.2" d="M224.472 157.76L217.512 162.795C217.737 163.842 217.869 164.906 217.905 165.975C220.436 165.805 224.036 163.378 224.45 160.844C224.641 159.825 224.649 158.781 224.472 157.76Z" fill="black"/>
<path d="M236.045 144.245C233.242 153.382 232.26 157.315 226.359 160.908C217.479 166.303 206.724 160.749 206.658 150.933C206.658 142.093 211.207 128.673 221.319 127.211C231.431 125.748 238.892 135.097 236.045 144.245Z" fill="#FFB573"/>
<path d="M228.715 130.899C226.065 139.708 228.334 148.919 233.744 149.979C241.26 147.255 240.889 139.146 238.969 135.436C237.049 131.726 230.243 125.822 228.715 130.899Z" fill="#263238"/>
<path d="M232.827 146.725C228.649 148.071 227.842 150.796 227.842 150.796C227.842 150.796 230.711 148.824 233.46 149.195C233.061 148.428 232.845 147.584 232.827 146.725Z" fill="#263238"/>
<path d="M222.388 143.386C222.203 144.139 221.646 144.648 221.134 144.531C220.621 144.414 220.348 143.683 220.534 142.93C220.719 142.178 221.275 141.658 221.788 141.786C222.301 141.913 222.53 142.634 222.388 143.386Z" fill="#263238"/>
<path d="M212.713 141.15C212.527 141.902 211.971 142.411 211.458 142.284C210.945 142.157 210.673 141.446 210.858 140.683C211.044 139.92 211.6 139.422 212.113 139.549C212.625 139.676 212.909 140.386 212.713 141.15Z" fill="#263238"/>
<path d="M212.353 139.644L210.596 138.659C210.596 138.659 211.218 140.312 212.353 139.644Z" fill="#263238"/>
<path d="M214.545 142.379C213.436 143.931 212.107 145.323 210.596 146.513C210.928 146.887 211.338 147.187 211.799 147.393C212.26 147.6 212.761 147.708 213.269 147.711L214.545 142.379Z" fill="#ED893E"/>
<path d="M236.1 153.414C235.523 154.073 234.806 154.603 233.998 154.969C233.191 155.335 232.312 155.527 231.421 155.534C229.141 155.47 228.748 152.926 230.003 150.838C231.093 148.951 233.668 146.715 235.653 147.785C237.638 148.856 237.649 151.697 236.1 153.414Z" fill="#FFB573"/>
<path d="M224.21 140.143C224.092 140.086 224.002 139.987 223.959 139.867C223.784 139.313 223.48 138.805 223.072 138.382C222.664 137.959 222.161 137.633 221.603 137.429C221.482 137.397 221.379 137.32 221.316 137.215C221.253 137.11 221.234 136.985 221.264 136.867C221.278 136.809 221.304 136.754 221.341 136.706C221.377 136.658 221.424 136.618 221.477 136.588C221.53 136.558 221.589 136.539 221.65 136.533C221.711 136.526 221.773 136.532 221.832 136.549C222.545 136.791 223.191 137.192 223.716 137.72C224.241 138.249 224.63 138.89 224.853 139.591C224.875 139.648 224.885 139.708 224.882 139.768C224.879 139.828 224.863 139.887 224.835 139.94C224.808 139.994 224.769 140.042 224.721 140.08C224.674 140.119 224.618 140.147 224.559 140.164C224.444 140.2 224.319 140.192 224.21 140.143Z" fill="#263238"/>
<path d="M209.2 136.634C209.077 136.638 208.956 136.596 208.862 136.517C208.776 136.43 208.728 136.315 208.728 136.194C208.728 136.073 208.776 135.958 208.862 135.871C209.349 135.324 209.964 134.9 210.655 134.634C211.346 134.369 212.093 134.269 212.833 134.344C212.957 134.365 213.069 134.432 213.144 134.531C213.219 134.629 213.252 134.752 213.236 134.874C213.218 134.994 213.151 135.101 213.05 135.173C212.95 135.244 212.825 135.274 212.702 135.256C212.117 135.199 211.526 135.282 210.981 135.496C210.435 135.71 209.952 136.05 209.571 136.486C209.524 136.535 209.467 136.574 209.402 136.599C209.338 136.625 209.27 136.637 209.2 136.634Z" fill="#263238"/>
<path d="M222.007 141.891L220.251 140.895C220.251 140.895 220.873 142.559 222.007 141.891Z" fill="#263238"/>
<path d="M221.439 217.152L212.712 215.509L213.694 225.25C213.694 225.25 220.239 224.974 223.97 222.07L224.319 220.798C223.915 218.689 223.424 217.915 221.439 217.152Z" fill="#FFB573"/>
<path d="M207.466 219.664L208.48 223.787C208.629 224.379 209 224.896 209.521 225.236C210.042 225.575 210.675 225.713 211.295 225.621L213.738 225.25L212.756 215.509L209.037 216.823C208.462 217.028 207.985 217.43 207.696 217.953C207.406 218.477 207.324 219.086 207.466 219.664Z" fill="#FFB573"/>
<path d="M240.954 182.32C243.605 187.255 245.919 192.354 247.881 197.584C248.862 200.202 249.79 202.884 250.531 205.629C251.34 208.474 251.888 211.383 252.168 214.321C252.233 215.095 252.266 215.89 252.277 216.696V216.982V217.438C252.25 217.75 252.192 218.059 252.102 218.36C251.942 218.944 251.692 219.502 251.36 220.014C250.855 220.775 250.194 221.428 249.419 221.932C248.47 222.545 247.423 223 246.321 223.278C245.486 223.503 244.637 223.676 243.779 223.798C240.806 224.161 237.806 224.271 234.812 224.126C229.138 223.872 223.491 223.213 217.916 222.155C217.312 222.058 216.768 221.743 216.392 221.273C216.016 220.803 215.837 220.213 215.889 219.621C215.941 219.028 216.222 218.476 216.674 218.076C217.127 217.675 217.718 217.455 218.33 217.459C223.784 217.364 229.304 217.226 234.616 216.834C237.159 216.662 239.686 216.308 242.176 215.774C242.684 215.659 243.183 215.511 243.67 215.328C243.911 215.263 244.135 215.148 244.325 214.989C244.115 215.11 243.942 215.281 243.823 215.487C243.678 215.711 243.567 215.954 243.496 216.208C243.457 216.351 243.428 216.496 243.408 216.643C243.403 216.713 243.403 216.784 243.408 216.855C243.408 216.314 243.31 215.795 243.223 215.201C242.269 210.288 240.781 205.488 238.783 200.881C236.809 196.1 234.551 191.235 232.238 186.645V186.56C231.769 185.451 231.748 184.211 232.177 183.087C232.607 181.962 233.457 181.037 234.557 180.494C235.658 179.952 236.928 179.832 238.116 180.158C239.303 180.485 240.32 181.234 240.965 182.256L240.954 182.32Z" fill="#FFB573"/>
<path d="M235.62 175.525C241.87 176.649 244.652 182.108 249.19 193.005C247.804 200.34 236.711 204.198 236.711 204.198C236.711 204.198 230.34 193.227 229.075 187.408C227.809 181.589 229.315 174.391 235.62 175.525Z" fill="#E0E0E0"/>
<path d="M222.41 434.6C222.359 434.459 222.26 434.339 222.129 434.259C221.998 434.18 221.843 434.147 221.69 434.165L214.294 434.059C213.538 434.01 212.782 434.168 212.113 434.515C208.727 436.571 204.924 437.89 200.964 438.384C199.394 438.617 200.103 441.193 203.811 441.236C209.931 441.299 211.044 440.854 216.269 440.907C220.73 440.96 218.603 441.151 222.148 441.236C222.999 441.236 223.697 440.716 223.588 440.176L222.41 434.6Z" fill="#263238"/>
<path d="M247.925 434.6C247.872 434.46 247.773 434.341 247.642 434.262C247.512 434.183 247.358 434.149 247.205 434.165L241.173 434.059C240.416 434.007 239.659 434.165 238.991 434.515C236.809 435.989 237.115 437.695 232.141 438.384C230.57 438.617 231.344 441.193 235.053 441.236C241.173 441.299 240.802 440.907 243.289 440.907C245.776 440.907 244.249 441.151 247.805 441.236C248.656 441.236 249.343 440.716 249.212 440.176L247.925 434.6Z" fill="#263238"/>
<path d="M209.855 186.465C212.953 186.592 218.636 189.062 220.458 191.701C223.032 189.104 233.089 183.073 233.264 174.9C232.033 173.75 230.482 172.976 228.802 172.674C228.802 172.674 215.385 178.981 209.855 186.465Z" fill="#FAFAFA"/>
<path d="M204.837 186.041C204.837 186.041 203.997 179.437 212.222 173.024C211.393 172.367 208.142 173.109 208.142 173.109C208.142 173.109 198.532 177.126 198.815 187.525C200.547 186.287 202.707 185.755 204.837 186.041Z" fill="#FAFAFA"/>
<path d="M203.615 188.839C202.426 189.38 201.957 193.143 203.615 194.022C205.273 194.902 205.11 191.309 206.069 190.079C207.029 188.85 205.699 187.896 203.615 188.839Z" fill="#FF4040"/>
<path d="M205.077 190.302C204.226 191.362 205.328 194.966 207.16 194.955C208.993 194.945 207.411 191.775 207.771 190.206C208.131 188.638 206.528 188.436 205.077 190.302Z" fill="#FF4040"/>
<path d="M205.328 192.984C203.288 189.92 203.146 206.064 208.088 212.424C207.76 206.159 211.218 197.277 205.328 192.984Z" fill="#FF4040"/>
<path d="M205.142 192.846C204.237 189.729 199.688 203.382 202.208 210.05C203.637 204.654 208.971 197.997 205.142 192.846Z" fill="#FF4040"/>
<path d="M220.349 150.626C220.824 150.425 221.281 150.184 221.712 149.905C221.737 149.882 221.756 149.853 221.769 149.823C221.783 149.792 221.789 149.758 221.789 149.725C221.789 149.691 221.783 149.658 221.769 149.627C221.756 149.596 221.737 149.568 221.712 149.545C221.667 149.488 221.602 149.45 221.529 149.439C221.456 149.427 221.382 149.442 221.32 149.481C220.347 150.115 219.24 150.529 218.081 150.692C216.922 150.855 215.74 150.764 214.622 150.425C214.589 150.411 214.554 150.403 214.518 150.402C214.482 150.402 214.446 150.408 214.413 150.421C214.379 150.433 214.349 150.453 214.323 150.477C214.297 150.501 214.276 150.53 214.262 150.562C214.238 150.628 214.241 150.701 214.272 150.765C214.302 150.828 214.358 150.878 214.426 150.902C216.368 151.522 218.477 151.424 220.349 150.626Z" fill="#263238"/>
<path d="M188.692 158.099H132.962V159.859H188.692V158.099Z" fill="#FF4040"/>
<path d="M187.362 159.859H134.293L136.627 161.088H185.027L187.362 159.859Z" fill="#FF4040"/>
<path opacity="0.2" d="M187.362 159.859H134.293L136.627 161.088H185.027L187.362 159.859Z" fill="black"/>
<path d="M150.819 110.961C150.493 110.958 150.181 110.831 149.95 110.607C149.72 110.383 149.589 110.08 149.586 109.763V105.746C149.589 105.429 149.72 105.126 149.95 104.902C150.181 104.678 150.493 104.551 150.819 104.548C151.145 104.551 151.457 104.678 151.687 104.902C151.918 105.126 152.048 105.429 152.051 105.746V109.763C152.048 110.08 151.918 110.383 151.687 110.607C151.457 110.831 151.145 110.958 150.819 110.961Z" fill="#263238"/>
<path d="M152.804 105.502V104.972C152.804 104.457 152.374 104.039 151.844 104.039H149.793C149.263 104.039 148.834 104.457 148.834 104.972V105.502C148.834 106.017 149.263 106.435 149.793 106.435H151.844C152.374 106.435 152.804 106.017 152.804 105.502Z" fill="#263238"/>
<path d="M152.793 119.685V108.226C152.793 108.101 152.743 107.981 152.653 107.892C152.564 107.803 152.442 107.752 152.313 107.749H149.324C149.196 107.752 149.074 107.803 148.984 107.892C148.895 107.981 148.844 108.101 148.844 108.226V119.685C148.845 120.546 148.657 121.397 148.294 122.183C147.932 122.968 147.401 123.67 146.739 124.243C146.079 124.819 145.551 125.523 145.188 126.31C144.826 127.097 144.637 127.949 144.634 128.811V158.205H156.993V128.811C156.992 127.949 156.804 127.096 156.441 126.309C156.079 125.522 155.549 124.818 154.888 124.243C154.228 123.669 153.701 122.966 153.34 122.181C152.979 121.395 152.793 120.545 152.793 119.685Z" fill="#FF4040"/>
<path d="M156.993 132.288H148.833V151.294H156.993V132.288Z" fill="#E0E0E0"/>
<path d="M168.578 158.099H167.105C167.595 158.13 168.087 158.13 168.578 158.099Z" fill="#FF4040"/>
<path d="M177.468 158.099H175.984C176.478 158.13 176.974 158.13 177.468 158.099Z" fill="#FF4040"/>
<path opacity="0.2" d="M166.603 135.68V140.503C166.603 144.34 168.85 147.531 171.697 147.923V156.403C171.697 157.707 170.388 158.078 169.374 158.163H175.188C174.173 158.078 172.864 157.707 172.864 156.403V147.923C175.711 147.541 177.959 144.351 177.959 140.503V135.68H166.603Z" fill="#FF4040"/>
<path d="M234.191 131.143C229.828 132.945 215.211 133.496 209.484 132.288C215.407 124.158 228.715 121.773 234.191 131.143Z" fill="#263238"/>
<path d="M247.947 160.187C247.904 160.186 247.863 160.176 247.825 160.158C247.787 160.14 247.754 160.113 247.728 160.081C247.587 159.89 244.369 155.29 244.303 142.973C244.303 137.832 242.678 133.698 239.94 131.61C239.228 131.038 238.389 130.637 237.489 130.438C236.589 130.24 235.654 130.249 234.758 130.465C234.723 130.472 234.687 130.473 234.651 130.467C234.616 130.461 234.582 130.449 234.552 130.43C234.521 130.411 234.495 130.387 234.474 130.358C234.454 130.33 234.439 130.297 234.431 130.263C234.423 130.229 234.422 130.194 234.428 130.16C234.435 130.125 234.448 130.092 234.467 130.063C234.486 130.033 234.511 130.008 234.541 129.987C234.57 129.967 234.603 129.953 234.638 129.945C235.612 129.72 236.625 129.715 237.601 129.93C238.577 130.145 239.489 130.574 240.267 131.186C243.158 133.38 244.827 137.673 244.859 142.962C244.925 155.089 248.132 159.731 248.132 159.774C248.153 159.802 248.168 159.834 248.176 159.869C248.184 159.903 248.185 159.938 248.179 159.972C248.173 160.007 248.16 160.04 248.14 160.07C248.121 160.099 248.096 160.125 248.067 160.145C248.03 160.167 247.989 160.181 247.947 160.187Z" fill="#263238"/>
<path d="M326.443 97.785C329.486 101.834 329.475 108.141 328.439 111.565C322.985 109.159 323.836 102.248 323.836 102.248L326.443 97.785Z" fill="#263238"/>
<path d="M342.751 147.902L345.892 151.262L349.165 154.675C351.347 156.933 353.528 159.138 355.775 161.258C356.866 162.318 357.957 163.378 359.124 164.311C360.291 165.243 361.306 166.24 362.451 167.098C363.597 167.957 364.633 168.72 365.647 169.377C366.411 169.875 367.214 170.315 368.047 170.692L366.378 170.437C365.883 170.379 365.383 170.488 364.96 170.745C364.96 170.745 365.222 170.745 365.593 170.533C366.606 169.93 367.546 169.219 368.396 168.413C370.63 166.35 372.718 164.144 374.647 161.809C376.73 159.382 378.759 156.795 380.777 154.177C382.795 151.559 384.813 148.877 386.799 146.238L386.897 146.121C387.592 145.229 388.587 144.603 389.709 144.351C390.831 144.099 392.008 144.237 393.035 144.742C394.063 145.246 394.876 146.084 395.333 147.111C395.79 148.138 395.862 149.288 395.536 150.361C394.432 153.711 393.154 157.005 391.707 160.23C390.278 163.41 388.697 166.59 386.908 169.77C385.052 173.077 382.906 176.223 380.494 179.172C379.055 180.915 377.432 182.507 375.65 183.921C374.47 184.848 373.177 185.631 371.8 186.253C369.777 187.169 367.562 187.611 365.331 187.546C364.92 187.531 364.51 187.478 364.109 187.387L363.651 187.291C361.261 186.735 358.95 185.898 356.768 184.8C354.94 183.896 353.173 182.88 351.477 181.758C348.367 179.724 345.401 177.489 342.598 175.07C339.849 172.748 337.297 170.321 334.82 167.851C333.599 166.6 332.377 165.349 331.21 164.056C330.043 162.763 328.919 161.502 327.686 160.028C326.311 158.087 325.723 155.719 326.038 153.382C326.352 151.044 327.546 148.903 329.389 147.37C331.232 145.837 333.593 145.022 336.018 145.081C338.443 145.14 340.76 146.069 342.522 147.69L342.751 147.902Z" fill="#E0E0E0"/>
<path d="M391.686 151.962L401.405 152.417L398.252 139.697C398.252 139.697 389.209 140.344 387.759 144.86C387.607 145.363 387.638 145.902 387.846 146.386L389.635 150.552C389.804 150.952 390.086 151.296 390.45 151.546C390.813 151.796 391.241 151.94 391.686 151.962Z" fill="#FF8B7B"/>
<path d="M410.077 144.87L408.2 140.63C407.835 139.808 407.183 139.138 406.358 138.739C405.534 138.339 404.591 138.236 403.695 138.447L398.241 139.75L401.394 152.47L407.939 149.905C408.425 149.719 408.868 149.438 409.241 149.082C409.614 148.725 409.909 148.299 410.108 147.829C410.308 147.359 410.408 146.855 410.402 146.347C410.397 145.838 410.286 145.336 410.077 144.87Z" fill="#FF8B7B"/>
<path d="M319.767 328.112C309.447 284.006 303.066 230.826 303.066 230.826L345.379 230.168C345.379 230.168 344.79 301.835 344.878 331.854C344.987 363.071 347.212 431.77 347.212 431.77H334.373C334.373 431.77 317.803 366.696 319.767 328.112Z" fill="#263238"/>
<path d="M316.473 267.258L309.775 276.904C311.771 288.945 314.138 302.206 316.898 315.202C318.054 295.231 317.858 272.028 316.473 267.258Z" fill="black"/>
<path d="M364.339 437.886C364.339 437.886 346.656 433.837 345.326 431.113H335.508L335.574 441.214H341.639L342.566 440.282L344.104 441.214C349.013 441.214 362.059 441.024 365.146 439.953C365.207 439.57 365.165 439.178 365.024 438.816C364.882 438.453 364.646 438.133 364.339 437.886Z" fill="#263238"/>
<path d="M280.409 326.872C285.307 282.511 285.155 252.874 291.121 231.016L329.65 230.455C329.65 230.455 313.603 300.817 306.153 330.095C298.703 359.372 285.951 431.749 285.951 431.749H274.061C274.061 431.749 270.319 361.174 280.409 326.872Z" fill="#263238"/>
<path d="M288.068 239.655C287.217 244.955 284.185 276.31 281.043 287.726C306.732 298.803 346.002 294.447 347.213 287.26C346.853 273.946 346.122 239.655 346.122 239.655H288.068Z" fill="#E0E0E0"/>
<path opacity="0.1" d="M289.497 245.475C291.291 248.3 293.458 250.883 295.944 253.16C295.944 253.16 290.402 252.195 289.497 245.475Z" fill="black"/>
<path opacity="0.1" d="M341.136 252.863C342.609 250.729 343.804 248.425 344.693 246.005C344.693 246.005 344.943 251.422 341.136 252.863Z" fill="black"/>
<path opacity="0.1" d="M289.737 249.471C290.329 251.594 291.206 253.633 292.344 255.534C291.306 254.921 290.494 254.004 290.026 252.915C289.557 251.825 289.456 250.62 289.737 249.471Z" fill="black"/>
<path d="M297.034 437.886C297.034 437.886 286.005 433.837 284.74 431.113H274.922L274.726 441.214H282.766L283.715 440.282L285.231 441.214C290.14 441.214 294.666 441.024 297.786 439.953C297.861 439.575 297.83 439.184 297.698 438.82C297.566 438.457 297.336 438.135 297.034 437.886Z" fill="#263238"/>
<path d="M289.704 142.517C303.317 140.874 322.756 141.033 335.791 143.217C339.048 143.79 342.037 145.345 344.336 147.66C346.634 149.975 348.125 152.933 348.598 156.117C351.336 175.25 348.98 208.682 347.234 242.337C317.454 252.238 286.038 242.199 286.038 242.199C284.948 235.415 287.391 213.166 289.027 201.294C286.573 189.03 281.391 174.985 277.923 158.693C277.502 156.87 277.479 154.982 277.856 153.15C278.233 151.319 279.002 149.585 280.113 148.06C281.223 146.535 282.651 145.254 284.303 144.299C285.955 143.344 287.795 142.737 289.704 142.517Z" fill="#263238"/>
<path opacity="0.1" d="M289.704 142.517C303.317 140.874 322.756 141.033 335.791 143.217C339.048 143.79 342.037 145.345 344.336 147.66C346.634 149.975 348.125 152.933 348.598 156.117C351.336 175.25 348.98 208.682 347.234 242.337C317.454 252.238 286.038 242.199 286.038 242.199C284.948 235.415 287.391 213.166 289.027 201.294C286.573 189.03 281.391 174.985 277.923 158.693C277.502 156.87 277.479 154.982 277.856 153.15C278.233 151.319 279.002 149.585 280.113 148.06C281.223 146.535 282.651 145.254 284.303 144.299C285.955 143.344 287.795 142.737 289.704 142.517Z" fill="white"/>
<path d="M303.176 117.257L318.666 129.606C316.658 134.79 316.026 140.206 324.774 142.252C326.956 145.061 323.683 149.99 319.8 151.909C310.615 149.873 305.325 147.478 301.758 142.718C302.881 138.987 304.67 124.921 303.176 117.257Z" fill="#FF8B7B"/>
<path opacity="0.2" d="M309.633 122.409L318.665 129.596C318.176 130.794 317.811 132.037 317.575 133.306C314.073 133.549 309.208 130.126 308.99 127.009C308.91 125.45 309.129 123.891 309.633 122.409Z" fill="black"/>
<path d="M300.95 108.841C302.368 118.285 302.695 123.882 308.051 128.313C316.113 134.98 327.806 129.553 329.334 119.833C330.697 111.109 328.156 97.1279 318.262 94.2023C316.067 93.5533 313.738 93.4572 311.494 93.9227C309.251 94.3883 307.166 95.4004 305.435 96.8638C303.704 98.3273 302.385 100.194 301.6 102.289C300.816 104.384 300.592 106.639 300.95 108.841Z" fill="#FF8B7B"/>
<path d="M300.863 113.197C301.862 114.249 303.152 114.998 304.578 115.353C306.005 115.709 307.506 115.656 308.902 115.201C306.568 112.901 308.837 104.484 306.503 101.06C311.019 101.93 328.603 104.41 330.283 98.4846C332.104 92.1246 324.829 87.0472 320.749 86.5702C321.949 89.2202 321.84 91.1388 317.367 90.2802C312.895 89.4216 294.46 85.2876 296.5 93.6828C290.565 93.6828 290.162 102.078 294.503 106.095C296.882 108.232 299.014 110.613 300.863 113.197Z" fill="#263238"/>
<path d="M297.59 93.28C294.034 92.4214 295.147 89.2414 295.943 88.9128C292.616 89.6972 291.405 92.8772 295.42 94.34C299.434 95.8028 297.59 93.28 297.59 93.28Z" fill="#263238"/>
<path d="M298.213 114.639C298.543 115.674 299.082 116.635 299.797 117.466C300.513 118.298 301.39 118.983 302.38 119.483C305.052 120.808 306.994 118.625 306.743 115.89C306.536 113.42 304.91 109.763 301.987 109.53C301.344 109.499 300.703 109.625 300.123 109.896C299.543 110.168 299.042 110.577 298.667 111.085C298.291 111.593 298.053 112.185 297.974 112.806C297.894 113.427 297.976 114.057 298.213 114.639Z" fill="#FF8B7B"/>
<path d="M314.597 109.18C314.662 109.954 315.142 110.547 315.688 110.505C316.233 110.463 316.582 109.784 316.517 109.021C316.451 108.258 315.971 107.654 315.426 107.696C314.88 107.738 314.531 108.406 314.597 109.18Z" fill="#263238"/>
<path d="M324.109 108.957C324.174 109.731 324.654 110.325 325.2 110.272C325.745 110.219 326.083 109.562 326.018 108.788C325.953 108.014 325.473 107.431 324.927 107.473C324.382 107.516 324.043 108.184 324.109 108.957Z" fill="#263238"/>
<path d="M322.177 109.996C323.325 112.275 324.794 114.387 326.541 116.271C325.243 117.671 322.799 117.331 322.799 117.331L322.177 109.996Z" fill="#FF5652"/>
<path d="M313.124 106.721C313.049 106.741 312.97 106.741 312.895 106.721C312.837 106.7 312.783 106.668 312.738 106.626C312.693 106.584 312.657 106.534 312.633 106.479C312.609 106.423 312.596 106.363 312.596 106.303C312.596 106.243 312.609 106.183 312.633 106.127C312.895 105.447 313.319 104.836 313.871 104.346C314.423 103.856 315.087 103.5 315.808 103.308C315.931 103.284 316.058 103.308 316.163 103.376C316.267 103.443 316.339 103.549 316.364 103.668C316.389 103.788 316.363 103.912 316.294 104.013C316.224 104.114 316.116 104.185 315.993 104.209C315.422 104.366 314.898 104.652 314.464 105.045C314.03 105.437 313.697 105.925 313.495 106.466C313.46 106.536 313.408 106.596 313.343 106.64C313.279 106.685 313.203 106.712 313.124 106.721Z" fill="#263238"/>
<path d="M329.629 105.491C329.55 105.492 329.473 105.472 329.404 105.435C329.335 105.398 329.277 105.344 329.236 105.279C328.946 104.784 328.538 104.363 328.047 104.051C327.555 103.74 326.994 103.546 326.411 103.488C326.349 103.486 326.288 103.473 326.232 103.449C326.176 103.425 326.125 103.39 326.082 103.347C326.04 103.304 326.006 103.253 325.984 103.197C325.962 103.141 325.951 103.081 325.953 103.021C325.958 102.9 326.013 102.785 326.105 102.702C326.196 102.618 326.318 102.573 326.443 102.576C327.183 102.642 327.895 102.878 328.521 103.265C329.147 103.652 329.669 104.179 330.043 104.802C330.105 104.906 330.124 105.028 330.095 105.145C330.067 105.261 329.994 105.362 329.89 105.428C329.814 105.478 329.721 105.501 329.629 105.491Z" fill="#263238"/>
<path d="M301.758 142.718C301.758 142.718 317.651 166.187 323.694 182.744C329.65 163.314 330.337 147.764 324.785 142.252C322.996 144.446 315.797 147.414 301.758 142.718Z" fill="#E0E0E0"/>
<path d="M296.336 160.06L294.798 164.3L293.271 168.71C292.256 171.646 291.329 174.593 290.467 177.486C290.031 178.939 289.649 180.38 289.3 181.801C288.951 183.221 288.613 184.631 288.373 185.977C288.133 187.323 287.947 188.627 287.827 189.793C287.765 190.686 287.765 191.582 287.827 192.475L287.26 190.927C286.802 190.09 286.333 189.867 286.311 189.867C286.289 189.867 286.464 190.079 286.802 190.312C287.817 190.894 288.897 191.364 290.02 191.712C292.921 192.659 295.884 193.417 298.889 193.98C302.085 194.595 305.379 195.04 308.706 195.57C312.033 196.1 315.458 196.471 318.753 196.927H318.905C320.056 197.087 321.111 197.637 321.883 198.481C322.656 199.325 323.096 200.407 323.126 201.536C323.156 202.664 322.774 203.767 322.048 204.649C321.321 205.53 320.297 206.133 319.156 206.35C315.602 207.006 312.016 207.487 308.412 207.792C304.812 208.11 301.179 208.269 297.503 208.248C293.627 208.241 289.759 207.911 285.94 207.262C283.698 206.855 281.505 206.227 279.395 205.386C277.99 204.822 276.663 204.089 275.447 203.202C273.654 201.915 272.197 200.238 271.192 198.305C271.007 197.945 270.857 197.569 270.745 197.181L270.625 196.747C269.988 194.439 269.64 192.065 269.589 189.676C269.536 187.684 269.612 185.691 269.818 183.709C270.167 180.087 270.768 176.492 271.618 172.95C272.392 169.494 273.374 166.155 274.432 162.858C274.977 161.215 275.523 159.583 276.134 157.961C276.745 156.339 277.355 154.781 278.108 153.032C279.093 150.747 280.953 148.924 283.296 147.948C285.639 146.972 288.28 146.92 290.662 147.803C293.044 148.685 294.979 150.433 296.058 152.677C297.137 154.921 297.276 157.485 296.445 159.827L296.336 160.06Z" fill="#E0E0E0"/>
<path d="M320.301 198.294L329.944 199.46L324.621 211.449C324.621 211.449 315.818 209.329 315.185 204.622C315.123 204.102 315.25 203.577 315.545 203.138L318.032 199.333C318.271 198.97 318.611 198.68 319.013 198.496C319.414 198.312 319.861 198.242 320.301 198.294Z" fill="#FF8B7B"/>
<path d="M337.177 208.332L334.581 212.233C334.077 212.983 333.316 213.535 332.434 213.791C331.551 214.047 330.603 213.991 329.759 213.632L324.621 211.449L329.945 199.46L335.955 203.075C336.395 203.339 336.776 203.685 337.076 204.093C337.376 204.502 337.589 204.965 337.702 205.454C337.816 205.944 337.828 206.451 337.738 206.945C337.648 207.439 337.457 207.911 337.177 208.332Z" fill="#FF8B7B"/>
<path d="M302.532 139.072C300.506 139.385 298.648 140.356 297.263 141.828C301.583 147.429 307.74 151.431 314.717 153.17C314.215 151.548 315.72 146.81 317.378 145.114C311.281 144.234 302.532 139.072 302.532 139.072Z" fill="#FAFAFA"/>
<path d="M319.287 139.655C321.355 140.02 323.321 140.804 325.058 141.955C325.058 141.955 331.166 148.58 323.967 152.322C324.458 150.7 320.694 146.375 317.323 145.114C323.41 144.234 319.287 139.655 319.287 139.655Z" fill="#FAFAFA"/>
<path d="M318 148.888C313.178 146.375 307.211 143.651 308.87 148.05C310.528 152.449 308.335 153.976 310.495 155.47C312.655 156.965 317.04 152.863 318.491 152.29C319.942 151.718 318 148.888 318 148.888Z" fill="#FF4040"/>
<path d="M321.414 148.856C325.09 146.45 329.694 143.842 328.875 148.135C328.057 152.428 330.086 153.923 328.483 155.375C326.879 156.827 322.756 152.767 321.447 152.195C320.138 151.622 321.414 148.856 321.414 148.856Z" fill="#FF4040"/>
<path d="M317.345 148.548C318.436 147.912 321.098 147.107 322.418 148.835C323.738 150.562 323.312 153.456 321.49 153.806C320.84 153.934 320.165 153.888 319.539 153.673C318.913 153.459 318.358 153.083 317.934 152.587C318.339 151.954 318.502 151.202 318.394 150.464C318.286 149.726 317.915 149.048 317.345 148.548Z" fill="#FF4040"/>
<path d="M286.616 432.088L273.385 432.448L272.687 425.166L288.056 426.056L286.616 432.088Z" fill="black"/>
<path d="M347.682 432.067L333.392 432.448L331.81 426.141L347.769 424.636L347.682 432.067Z" fill="black"/>
<path d="M316.538 195.824C309.856 193.905 302.966 192.749 296.008 192.379C294.525 192.464 293.958 225.038 294.078 238.362C294.078 240.164 315.414 239.804 320.868 238.988C321.174 235.267 321.239 208.11 322.657 199.619C322.766 198.955 322.642 198.275 322.306 197.687C321.97 197.099 321.441 196.637 320.803 196.376C319.452 195.846 317.985 195.657 316.538 195.824Z" fill="white"/>
<path d="M428.229 143.683H367.666V145.358H428.229V143.683Z" fill="#FF4040"/>
<path d="M426.963 145.358H368.931L371.156 146.534H424.749L426.963 145.358Z" fill="#FF4040"/>
<path opacity="0.2" d="M426.963 145.358H368.931L371.156 146.534H424.749L426.963 145.358Z" fill="black"/>
<path d="M400.445 120.024C400.447 120.504 400.302 120.975 400.029 121.375C399.756 121.776 399.367 122.089 398.91 122.274C398.454 122.459 397.952 122.509 397.466 122.416C396.981 122.324 396.535 122.094 396.185 121.755C395.834 121.416 395.595 120.983 395.498 120.512C395.401 120.041 395.449 119.552 395.638 119.108C395.827 118.664 396.147 118.284 396.558 118.017C396.969 117.75 397.452 117.607 397.947 117.607C398.274 117.606 398.599 117.667 398.902 117.788C399.205 117.909 399.481 118.087 399.713 118.311C399.945 118.536 400.129 118.803 400.255 119.097C400.38 119.39 400.445 119.706 400.445 120.024Z" fill="#FF4040"/>
<path d="M424.128 135.913C422.446 130.852 419.248 126.393 414.943 123.108L415.619 122.271C420.099 125.689 423.426 130.328 425.175 135.595L424.128 135.913Z" fill="#FF4040"/>
<path d="M411.157 120.67C409.935 120.014 408.662 119.451 407.35 118.985L407.721 117.989C409.086 118.487 410.41 119.086 411.681 119.78L411.157 120.67Z" fill="#FF4040"/>
<path d="M397.947 120.024C391.376 120.024 385.075 122.56 380.43 127.075C375.784 131.589 373.174 137.712 373.174 144.096H422.719C422.719 137.712 420.109 131.589 415.464 127.075C410.818 122.56 404.517 120.024 397.947 120.024Z" fill="#FF4040"/>
<path opacity="0.3" d="M376.589 141.945H382.992C383.213 141.941 383.426 141.863 383.595 141.724C383.764 141.585 383.879 141.393 383.919 141.181C385.206 134.588 389.253 128.843 395.689 123.85C395.835 123.736 395.939 123.579 395.984 123.403C396.03 123.226 396.016 123.04 395.943 122.872C395.87 122.705 395.743 122.565 395.581 122.473C395.419 122.382 395.231 122.344 395.045 122.366C390.178 122.991 385.652 125.137 382.151 128.482C378.65 131.826 376.365 136.187 375.639 140.906C375.622 141.036 375.634 141.169 375.674 141.295C375.714 141.42 375.781 141.536 375.871 141.635C375.961 141.733 376.072 141.812 376.195 141.865C376.319 141.919 376.453 141.946 376.589 141.945Z" fill="white"/>
<path d="M319.134 120.087C319.645 120.109 320.156 120.084 320.661 120.013C320.729 120 320.789 119.962 320.828 119.906C320.867 119.851 320.881 119.782 320.869 119.716C320.851 119.647 320.808 119.587 320.748 119.546C320.688 119.505 320.614 119.487 320.541 119.494C319.402 119.658 318.239 119.57 317.14 119.236C316.04 118.902 315.033 118.331 314.193 117.565C314.168 117.539 314.139 117.519 314.106 117.505C314.073 117.491 314.038 117.484 314.002 117.484C313.966 117.484 313.931 117.491 313.898 117.505C313.865 117.519 313.835 117.539 313.811 117.565C313.763 117.615 313.737 117.682 313.737 117.75C313.737 117.819 313.763 117.885 313.811 117.936C315.254 119.263 317.148 120.028 319.134 120.087Z" fill="#263238"/>
</svg>
