<svg width="254" height="279" viewBox="0 0 254 279" fill="none" xmlns="http://www.w3.org/2000/svg">
<path d="M126.807 238.142C180.961 238.142 224.862 235.32 224.862 231.837C224.862 228.355 180.961 225.532 126.807 225.532C72.6532 225.532 28.7527 228.355 28.7527 231.837C28.7527 235.32 72.6532 238.142 126.807 238.142Z" fill="#F5F5F5"/>
<path d="M98.1786 66.6426C94.239 70.2184 90.3904 75.9832 92.6459 82.2381C94.9015 88.493 109.335 89.1224 112.369 86.5491C116.314 83.2072 112.829 68.3247 109.755 68.2356C109.522 62.7159 101.471 63.6516 98.1786 66.6426Z" fill="#263238"/>
<path d="M92.6609 126.88C92.6609 126.88 94.2438 158.594 95.9885 175.766C96.1655 191.891 99.5286 228.317 99.5286 228.317H103.225C103.847 210.243 108.414 193.367 105.38 177.426C112.46 146.124 107.61 126.902 107.61 126.902L92.6609 126.88Z" fill="#FFB573"/>
<path d="M96.6865 126.902C96.6865 126.902 104.298 162.081 106.381 177.064C108.576 192.804 111.843 223.349 111.691 228.306H114.882C114.882 228.306 120.243 197.405 115.282 177.621C119.373 133.063 109.279 126.936 109.279 126.936L96.6865 126.902Z" fill="#FFB573"/>
<path d="M78.4352 86.2149C78.1975 84.3156 75.0317 84.1541 75.0317 84.1541L73.5146 83.3131C73.2482 83.1335 72.929 83.0749 72.6242 83.1497C72.3194 83.2246 72.0529 83.4269 71.8811 83.7141L71.3754 84.6387C71.2281 85.0026 71.2037 85.4125 71.3066 85.7945C71.4095 86.1764 71.633 86.5053 71.9367 86.7218L72.3969 87.0894C73.1798 87.7057 74.1062 88.0632 75.0671 88.1198L76.468 88.2034C76.7756 88.2229 77.0839 88.1814 77.3783 88.0808C77.7268 87.9601 78.0241 87.7049 78.2155 87.3621C78.4069 87.0193 78.4795 86.612 78.4201 86.2149H78.4352Z" fill="#FFB573"/>
<path d="M95.1087 97.3266C94.9166 97.5439 94.8154 97.6497 94.6738 97.7889L94.2743 98.1788C94.0113 98.4239 93.7382 98.6523 93.4702 98.8806C92.924 99.3262 92.3677 99.7384 91.7963 100.128C90.6495 100.888 89.4446 101.537 88.1955 102.067C85.7077 103.132 83.0665 103.698 80.3973 103.737H80.1646C80.0428 103.735 79.9211 103.723 79.8005 103.704C79.563 103.666 79.3304 103.597 79.1077 103.498C78.7327 103.328 78.3897 103.082 78.0962 102.774C77.7162 102.363 77.4061 101.88 77.1809 101.348C76.8654 100.595 76.6296 99.8044 76.4779 98.992C76.2097 97.5939 76.0407 96.1748 75.9722 94.7478C75.8352 92.0146 75.886 89.2739 76.1239 86.5491C76.1521 86.2445 76.2809 85.9621 76.4859 85.7553C76.6909 85.5486 76.9577 85.4321 77.2356 85.428C77.5135 85.4239 77.7831 85.5324 77.9931 85.733C78.2031 85.9335 78.3388 86.2121 78.3744 86.5157V86.5491C78.6475 89.1446 78.961 91.7791 79.3858 94.3022C79.5731 95.5242 79.8315 96.7316 80.1596 97.917C80.2902 98.4019 80.47 98.869 80.6956 99.3095C80.7867 99.471 80.8777 99.549 80.8372 99.4933C80.7703 99.4135 80.6871 99.3524 80.5945 99.3151C80.5125 99.274 80.4257 99.2459 80.3366 99.2315H80.2C81.2872 99.1222 82.3656 98.9248 83.4265 98.6411C84.4778 98.352 85.5088 97.9797 86.5115 97.5272C87.51 97.0565 88.4723 96.4977 89.389 95.8562C89.8492 95.5443 90.2943 95.2157 90.7241 94.8648C90.9365 94.6921 91.1388 94.5139 91.3411 94.3357L91.6344 94.0683L91.8569 93.8511L91.9884 93.723C92.4295 93.2879 93.0073 93.0598 93.5989 93.0873C94.1904 93.1147 94.7488 93.3955 95.1551 93.8698C95.5614 94.3441 95.7833 94.9745 95.7737 95.6265C95.7641 96.2784 95.5237 96.9005 95.1037 97.3601L95.1087 97.3266Z" fill="#FFB573"/>
<path d="M97.5969 91.1442C93.5966 90.409 89.3991 93.4056 87.2245 95.8451C86.1018 99.5658 89.6975 104.088 89.6975 104.088C89.6975 104.088 94.8205 100.624 96.6663 98.2569C98.5122 95.8897 99.903 91.5675 97.5969 91.1442Z" fill="#E0E0E0"/>
<path d="M109.987 126.479C109.987 126.479 115.631 130.89 116.693 145.556C117.118 151.331 117.881 174.374 119.49 184.288C113.699 188.844 96.3629 188.22 93.6471 185.558C94.4158 165.507 87.4571 138.911 92.5042 126.68C100.859 125.549 109.987 126.479 109.987 126.479Z" fill="#263238"/>
<path opacity="0.2" d="M104.262 168.537C104.338 160.109 103.21 148.513 99.7866 141.64C100.955 150.217 104.262 168.537 104.262 168.537Z" fill="black"/>
<path d="M89.8542 97.9394C89.8542 102.713 86.4002 105.219 90.3094 108.895C90.542 113.017 90.8151 120.397 91.9631 127.12C93.1516 128.941 101.84 128.791 110.867 126.635C109.689 120.87 110.124 111.48 113.214 98.6356C113.378 97.9228 113.407 97.1803 113.299 96.4545C113.191 95.7287 112.948 95.0353 112.585 94.4178C112.223 93.8003 111.748 93.2719 111.191 92.8658C110.635 92.4596 110.008 92.1845 109.35 92.0577C108.606 91.9129 107.833 91.7792 107.013 91.6678C104.19 91.2094 101.341 90.9749 98.4869 90.966C97.5665 90.966 96.6107 91.0328 95.7004 91.0997C94.119 91.2073 92.6342 91.9745 91.5481 93.2451C90.4621 94.5157 89.8564 96.1943 89.8542 97.9394Z" fill="#E0E0E0"/>
<path d="M108.296 106.227L97.7014 108.869C97.2983 108.97 97.0454 109.411 97.1367 109.855L100.567 126.538C100.658 126.982 101.059 127.26 101.462 127.16L112.057 124.517C112.46 124.417 112.713 123.975 112.622 123.531L109.191 106.849C109.1 106.405 108.699 106.126 108.296 106.227Z" fill="#FF4040"/>
<path d="M99.5339 97.1206C99.5339 97.1206 97.8196 99.3819 96.4035 99.9055L96.2417 101.019C98.0323 100.768 99.685 99.8289 100.909 98.3682L99.5339 97.1206Z" fill="#FF4040"/>
<path d="M94.8761 95.756C94.8761 95.756 94.8053 98.6969 95.5437 100.134L94.9924 101.092C93.8003 99.5976 93.1235 97.6889 93.0808 95.7003L94.8761 95.756Z" fill="#FF4040"/>
<path d="M106.665 81.074C105.987 84.0371 105.193 89.5011 107.014 91.6566C107.014 91.6566 100.232 93.6952 95.8117 100.379C93.7888 93.3554 98.5072 90.9548 98.5072 90.9548C101.597 90.3979 101.638 87.9137 101.213 85.5298L106.665 81.074Z" fill="#FFB573"/>
<path opacity="0.2" d="M104.444 82.8953L101.218 85.541C101.322 86.0911 101.383 86.6502 101.4 87.2119C102.573 87.1228 104.242 85.8473 104.434 84.5161C104.523 83.9806 104.526 83.4322 104.444 82.8953Z" fill="black"/>
<path d="M109.81 75.7939C108.51 80.595 108.055 82.6614 105.319 84.5496C101.203 87.3846 96.2161 84.466 96.1858 79.3084C96.1858 74.6632 98.2947 67.6118 102.983 66.8432C107.671 66.0746 111.13 70.9871 109.81 75.7939Z" fill="#FFB573"/>
<path d="M106.412 68.7815C105.183 73.41 106.235 78.2501 108.743 78.8071C112.228 77.3757 112.056 73.1148 111.166 71.1653C110.275 69.2159 107.12 66.1135 106.412 68.7815Z" fill="#263238"/>
<path d="M108.318 77.0971C106.381 77.8045 106.007 79.2359 106.007 79.2359C106.007 79.2359 107.337 78.2 108.611 78.3949C108.426 77.992 108.326 77.5485 108.318 77.0971Z" fill="#263238"/>
<path d="M103.478 75.3427C103.392 75.7381 103.134 76.0055 102.897 75.9442C102.659 75.8829 102.533 75.4986 102.619 75.1032C102.705 74.7077 102.962 74.4348 103.2 74.5016C103.438 74.5685 103.544 74.9472 103.478 75.3427Z" fill="#263238"/>
<path d="M98.9927 74.1674C98.9067 74.5629 98.6488 74.8302 98.4111 74.7634C98.1734 74.6966 98.047 74.3234 98.133 73.9224C98.2189 73.5213 98.4769 73.2595 98.7146 73.3264C98.9523 73.3932 99.0837 73.7664 98.9927 74.1674Z" fill="#263238"/>
<path d="M98.8259 73.3765L98.0117 72.8586C98.0117 72.8586 98.3 73.7274 98.8259 73.3765Z" fill="#263238"/>
<path d="M99.8424 74.8136C99.3283 75.6291 98.712 76.3605 98.0117 76.9858C98.1655 77.182 98.3556 77.3397 98.5693 77.4483C98.7831 77.5568 99.0154 77.6137 99.2507 77.6152L99.8424 74.8136Z" fill="#ED893E"/>
<path d="M109.835 80.6117C109.568 80.958 109.235 81.2367 108.861 81.4289C108.486 81.6211 108.079 81.7223 107.666 81.7256C106.609 81.6922 106.427 80.3555 107.008 79.2582C107.514 78.2668 108.708 77.0916 109.628 77.6541C110.548 78.2167 110.554 79.7094 109.835 80.6117Z" fill="#FFB573"/>
<path d="M104.323 73.6383C104.268 73.6086 104.227 73.5567 104.207 73.4935C104.125 73.2023 103.985 72.9354 103.795 72.7133C103.606 72.4912 103.373 72.3199 103.114 72.2124C103.058 72.1955 103.011 72.1551 102.981 72.0999C102.952 72.0448 102.944 71.9793 102.957 71.9172C102.964 71.8867 102.976 71.8579 102.993 71.8327C103.01 71.8074 103.031 71.7863 103.056 71.7706C103.081 71.755 103.108 71.7451 103.136 71.7415C103.165 71.738 103.193 71.7409 103.22 71.7502C103.551 71.877 103.851 72.0878 104.094 72.3655C104.337 72.6432 104.518 72.98 104.621 73.3487C104.632 73.3782 104.636 73.4098 104.635 73.4414C104.633 73.4729 104.626 73.5038 104.613 73.5321C104.6 73.5604 104.582 73.5854 104.56 73.6056C104.538 73.6258 104.512 73.6407 104.485 73.6495C104.431 73.6683 104.374 73.6643 104.323 73.6383Z" fill="#263238"/>
<path d="M97.3644 71.7947C97.307 71.7968 97.251 71.7749 97.2076 71.7334C97.1678 71.6878 97.1455 71.6269 97.1455 71.5636C97.1455 71.5002 97.1678 71.4393 97.2076 71.3937C97.4331 71.1065 97.7182 70.8837 98.0388 70.744C98.3593 70.6044 98.7057 70.5521 99.0485 70.5916C99.1062 70.6026 99.1579 70.6376 99.1928 70.6895C99.2276 70.7414 99.243 70.8061 99.2356 70.8701C99.2269 70.9329 99.1959 70.9893 99.1494 71.0269C99.1029 71.0645 99.0448 71.0802 98.9878 71.0706C98.7164 71.0408 98.4426 71.0841 98.1898 71.1966C97.9369 71.3092 97.7127 71.4877 97.5364 71.7167C97.5145 71.7426 97.4878 71.763 97.4581 71.7764C97.4285 71.7899 97.3965 71.7961 97.3644 71.7947Z" fill="#263238"/>
<path d="M103.302 74.5573L102.488 74.0338C102.488 74.0338 102.776 74.9082 103.302 74.5573Z" fill="#263238"/>
<path d="M103.038 114.103L98.9927 113.24L99.4478 118.358C99.4478 118.358 102.482 118.213 104.212 116.687L104.374 116.019C104.186 114.911 103.959 114.504 103.038 114.103Z" fill="#FFB573"/>
<path d="M96.5602 115.423L97.0306 117.59C97.0993 117.901 97.2714 118.172 97.5129 118.351C97.7544 118.529 98.0478 118.601 98.3353 118.553L99.4681 118.358L99.013 113.24L97.2885 113.93C97.0222 114.038 96.801 114.249 96.6667 114.524C96.5325 114.799 96.4946 115.119 96.5602 115.423Z" fill="#FFB573"/>
<path d="M112.086 95.8006C113.315 98.3934 114.388 101.073 115.297 103.821C115.752 105.197 116.182 106.606 116.526 108.049C116.901 109.543 117.155 111.072 117.284 112.616C117.315 113.022 117.33 113.44 117.335 113.863V114.014V114.253C117.323 114.417 117.296 114.58 117.254 114.738C117.18 115.045 117.064 115.338 116.91 115.607C116.676 116.007 116.37 116.35 116.01 116.615C115.57 116.937 115.085 117.176 114.574 117.322C114.187 117.44 113.793 117.531 113.395 117.595C112.017 117.786 110.626 117.844 109.238 117.768C106.608 117.634 103.989 117.288 101.405 116.732C101.125 116.681 100.873 116.515 100.698 116.269C100.524 116.022 100.441 115.712 100.465 115.4C100.49 115.089 100.62 114.799 100.829 114.588C101.039 114.378 101.313 114.262 101.597 114.264C104.126 114.214 106.684 114.142 109.147 113.936C110.326 113.846 111.498 113.66 112.652 113.379C112.888 113.319 113.119 113.241 113.345 113.145C113.457 113.111 113.56 113.05 113.648 112.967C113.551 113.03 113.471 113.12 113.416 113.228C113.348 113.346 113.297 113.473 113.264 113.607C113.246 113.682 113.233 113.759 113.223 113.836C113.221 113.873 113.221 113.91 113.223 113.947C113.223 113.663 113.178 113.39 113.138 113.078C112.695 110.497 112.005 107.974 111.079 105.553C110.164 103.041 109.117 100.485 108.045 98.073V98.0285C107.828 97.4456 107.817 96.794 108.017 96.2033C108.216 95.6127 108.61 95.1264 109.12 94.8412C109.63 94.5561 110.219 94.493 110.77 94.6646C111.32 94.8362 111.792 95.2298 112.091 95.7671L112.086 95.8006Z" fill="#FFB573"/>
<path d="M109.613 92.2303C112.511 92.8207 113.8 95.6891 115.904 101.415C115.262 105.269 110.118 107.297 110.118 107.297C110.118 107.297 107.165 101.532 106.578 98.474C105.992 95.4162 106.69 91.6343 109.613 92.2303Z" fill="#E0E0E0"/>
<path d="M103.489 228.362C103.465 228.288 103.419 228.224 103.358 228.183C103.297 228.141 103.226 228.124 103.155 228.133L99.726 228.078C99.3751 228.052 99.0247 228.135 98.7145 228.317C97.1449 229.397 95.3818 230.091 93.546 230.35C92.8178 230.473 93.1465 231.826 94.866 231.849C97.7031 231.882 98.2189 231.648 100.641 231.676C102.71 231.704 101.724 231.804 103.367 231.849C103.762 231.849 104.085 231.576 104.035 231.292L103.489 228.362Z" fill="#263238"/>
<path d="M115.318 228.362C115.293 228.288 115.247 228.226 115.186 228.184C115.126 228.143 115.055 228.125 114.984 228.133L112.187 228.078C111.836 228.05 111.485 228.133 111.176 228.317C110.164 229.091 110.306 229.988 108 230.35C107.271 230.473 107.631 231.826 109.35 231.848C112.187 231.882 112.015 231.676 113.168 231.676C114.321 231.676 113.613 231.804 115.262 231.848C115.656 231.848 115.975 231.576 115.914 231.291L115.318 228.362Z" fill="#263238"/>
<path d="M97.6677 97.9783C99.104 98.0452 101.739 99.3429 102.583 100.73C103.777 99.3652 108.44 96.196 108.521 91.9017C107.95 91.2973 107.231 90.8906 106.452 90.732C106.452 90.732 100.232 94.0461 97.6677 97.9783Z" fill="#FAFAFA"/>
<path d="M95.3413 97.7556C95.3413 97.7556 94.9519 94.2856 98.765 90.9159C98.3807 90.5705 96.8736 90.9604 96.8736 90.9604C96.8736 90.9604 92.4182 93.0714 92.5497 98.5353C93.3526 97.8851 94.3541 97.6054 95.3413 97.7556Z" fill="#FAFAFA"/>
<path d="M94.7749 99.226C94.2237 99.51 94.0062 101.487 94.7749 101.95C95.5436 102.412 95.4677 100.524 95.9128 99.8777C96.3578 99.2316 95.7408 98.7303 94.7749 99.226Z" fill="#FF4040"/>
<path d="M95.4526 99.9946C95.0581 100.552 95.5689 102.445 96.4186 102.44C97.2682 102.434 96.5349 100.769 96.7018 99.9445C96.8687 99.1202 96.1252 99.0143 95.4526 99.9946Z" fill="#FF4040"/>
<path d="M95.5691 101.404C94.6234 99.7941 94.5577 108.277 96.8486 111.619C96.6969 108.327 98.3001 103.66 95.5691 101.404Z" fill="#FF4040"/>
<path d="M95.483 101.331C95.0633 99.6939 92.9544 106.868 94.1226 110.371C94.7851 107.536 97.2581 104.038 95.483 101.331Z" fill="#FF4040"/>
<path d="M102.533 79.1468C102.753 79.0412 102.965 78.9145 103.165 78.7681C103.177 78.7557 103.186 78.7409 103.192 78.7247C103.198 78.7084 103.201 78.691 103.201 78.6734C103.201 78.6558 103.198 78.6384 103.192 78.6222C103.186 78.6059 103.177 78.5911 103.165 78.5787C103.144 78.5491 103.114 78.5292 103.08 78.523C103.046 78.5168 103.012 78.5248 102.983 78.5453C102.532 78.8784 102.019 79.0958 101.482 79.1816C100.944 79.2674 100.396 79.2194 99.878 79.041C99.8628 79.0336 99.8463 79.0297 99.8296 79.0293C99.813 79.029 99.7964 79.0323 99.7809 79.039C99.7654 79.0457 99.7512 79.0558 99.7393 79.0685C99.7273 79.0813 99.7177 79.0966 99.7111 79.1134C99.6997 79.1481 99.7013 79.1864 99.7156 79.2198C99.7298 79.2533 99.7555 79.2791 99.787 79.2917C100.687 79.6179 101.665 79.5664 102.533 79.1468Z" fill="#263238"/>
<path d="M87.8567 83.0735H62.0193V83.9981H87.8567V83.0735Z" fill="#FF4040"/>
<path d="M87.2396 83.9982H62.6362L63.7185 84.6443H86.1574L87.2396 83.9982Z" fill="#FF4040"/>
<path opacity="0.2" d="M87.2396 83.9982H62.6362L63.7185 84.6443H86.1574L87.2396 83.9982Z" fill="black"/>
<path d="M70.298 58.3047C70.1469 58.3032 70.0023 58.2364 69.8954 58.1187C69.7885 58.001 69.7279 57.8418 69.7266 57.6753V55.5643C69.7279 55.3979 69.7885 55.2386 69.8954 55.1209C70.0023 55.0032 70.1469 54.9364 70.298 54.9349C70.4492 54.9364 70.5938 55.0032 70.7006 55.1209C70.8075 55.2386 70.8682 55.3979 70.8695 55.5643V57.6753C70.8682 57.8418 70.8075 58.001 70.7006 58.1187C70.5938 58.2364 70.4492 58.3032 70.298 58.3047Z" fill="#263238"/>
<path d="M71.2185 55.4362V55.1577C71.2185 54.887 71.0193 54.6676 70.7735 54.6676H69.8227C69.5769 54.6676 69.3777 54.887 69.3777 55.1577V55.4362C69.3777 55.7069 69.5769 55.9263 69.8227 55.9263H70.7735C71.0193 55.9263 71.2185 55.7069 71.2185 55.4362Z" fill="#263238"/>
<path d="M71.2135 62.8886V56.8676C71.2135 56.8021 71.1902 56.7392 71.1486 56.6924C71.107 56.6455 71.0504 56.6185 70.991 56.617H69.6053C69.5458 56.6185 69.4892 56.6455 69.4476 56.6924C69.406 56.7392 69.3827 56.8021 69.3828 56.8676V62.8886C69.3829 63.3411 69.296 63.7885 69.1278 64.2013C68.9595 64.6141 68.7138 64.983 68.4067 65.2836C68.1007 65.5864 67.8558 65.9565 67.6877 66.37C67.5196 66.7835 67.432 67.2312 67.4307 67.6842V83.1293H73.1605V67.6842C73.1601 67.231 73.073 66.783 72.9048 66.3693C72.7366 65.9557 72.4912 65.5858 72.1845 65.2836C71.8788 64.982 71.6343 64.6129 71.467 64.2002C71.2997 63.7875 71.2133 63.3406 71.2135 62.8886Z" fill="#FF4040"/>
<path d="M73.1602 69.5111H69.3774V79.4977H73.1602V69.5111Z" fill="#E0E0E0"/>
<path d="M78.5311 83.0735H77.8484C78.0757 83.0904 78.3038 83.0904 78.5311 83.0735Z" fill="#FF4040"/>
<path d="M82.6529 83.0735H81.9651C82.1941 83.0903 82.4239 83.0903 82.6529 83.0735Z" fill="#FF4040"/>
<path opacity="0.2" d="M77.6157 71.2935V73.8277C77.6157 75.844 78.6575 77.5205 79.9774 77.7266V82.1824C79.9774 82.8675 79.3706 83.0624 78.9003 83.107H81.5958C81.1254 83.0624 80.5186 82.8675 80.5186 82.1824V77.7266C81.8385 77.5261 82.8803 75.8496 82.8803 73.8277V71.2935H77.6157Z" fill="#FF4040"/>
<path d="M108.95 68.9095C106.928 69.8564 100.151 70.146 97.4958 69.5111C100.242 65.239 106.412 63.9858 108.95 68.9095Z" fill="#263238"/>
<path d="M115.328 84.1708C115.308 84.1704 115.289 84.1652 115.271 84.1555C115.254 84.1459 115.238 84.1321 115.226 84.1151C115.161 84.0148 113.669 81.5976 113.638 75.1254C113.638 72.4241 112.885 70.2519 111.616 69.1546C111.286 68.8545 110.897 68.6437 110.479 68.5392C110.062 68.4348 109.629 68.4395 109.213 68.5531C109.197 68.5571 109.18 68.5576 109.164 68.5544C109.147 68.5513 109.132 68.5446 109.118 68.5348C109.104 68.525 109.091 68.5122 109.082 68.4971C109.072 68.4821 109.065 68.4652 109.062 68.4473C109.058 68.4293 109.058 68.4108 109.06 68.3927C109.063 68.3746 109.069 68.3573 109.078 68.3418C109.087 68.3263 109.099 68.3129 109.112 68.3023C109.126 68.2917 109.141 68.2842 109.158 68.2802C109.609 68.1619 110.079 68.1591 110.531 68.2721C110.984 68.3851 111.406 68.6108 111.767 68.9318C113.107 70.0848 113.881 72.3405 113.896 75.1199C113.927 81.4917 115.414 83.9313 115.414 83.9536C115.423 83.9685 115.43 83.9855 115.434 84.0034C115.438 84.0213 115.438 84.0399 115.435 84.058C115.432 84.0761 115.426 84.0935 115.417 84.109C115.409 84.1245 115.397 84.138 115.383 84.1485C115.366 84.1602 115.347 84.1678 115.328 84.1708Z" fill="#263238"/>
<path d="M151.719 51.3814C153.13 53.509 153.125 56.8231 152.645 58.6221C150.116 57.3578 150.511 53.7263 150.511 53.7263L151.719 51.3814Z" fill="#263238"/>
<path d="M159.28 77.7154L160.737 79.4811L162.254 81.2745C163.265 82.4609 164.277 83.6194 165.319 84.7334C165.824 85.2904 166.33 85.8473 166.871 86.3375C167.412 86.8276 167.883 87.3512 168.414 87.8023C168.945 88.2535 169.425 88.6545 169.895 88.9998C170.249 89.2614 170.621 89.4923 171.008 89.6905L170.234 89.5568C170.005 89.5263 169.773 89.5834 169.577 89.7183C169.577 89.7183 169.698 89.7183 169.87 89.607C170.34 89.2901 170.776 88.9165 171.17 88.493C172.205 87.4093 173.173 86.25 174.068 85.023C175.034 83.7475 175.974 82.3885 176.91 81.0127C177.845 79.637 178.781 78.2279 179.701 76.841L179.747 76.7797C180.069 76.3113 180.531 75.9822 181.051 75.8497C181.571 75.7173 182.116 75.7899 182.593 76.0549C183.069 76.3199 183.446 76.7605 183.658 77.3C183.87 77.8395 183.903 78.4438 183.752 79.0076C183.24 80.7679 182.648 82.4986 181.977 84.1931C181.315 85.864 180.581 87.535 179.752 89.2059C178.891 90.9438 177.897 92.5967 176.778 94.1463C176.111 95.0624 175.359 95.8988 174.533 96.6416C173.986 97.129 173.386 97.5405 172.748 97.867C171.81 98.3483 170.783 98.581 169.749 98.5465C169.558 98.5386 169.368 98.5106 169.182 98.4629L168.97 98.4128C167.862 98.1204 166.79 97.6809 165.779 97.1039C164.931 96.6285 164.112 96.0946 163.326 95.5054C161.884 94.4365 160.509 93.2623 159.209 91.9908C157.935 90.771 156.752 89.4956 155.604 88.1978C155.037 87.5406 154.471 86.8833 153.93 86.2038C153.389 85.5243 152.868 84.8615 152.296 84.0873C151.658 83.0671 151.386 81.823 151.532 80.5948C151.678 79.3666 152.231 78.2413 153.085 77.4359C153.94 76.6305 155.035 76.202 156.159 76.2331C157.283 76.2641 158.357 76.7525 159.174 77.604L159.28 77.7154Z" fill="#E0E0E0"/>
<path d="M181.967 79.8487L186.473 80.0881L185.011 73.4044C185.011 73.4044 180.819 73.7442 180.146 76.1169C180.076 76.3814 180.09 76.6646 180.187 76.9189L181.016 79.1079C181.094 79.3179 181.225 79.4991 181.394 79.6303C181.562 79.7614 181.761 79.8372 181.967 79.8487Z" fill="#FF8B7B"/>
<path d="M190.493 76.1225L189.623 73.8945C189.454 73.4627 189.151 73.1107 188.769 72.9007C188.387 72.6907 187.95 72.6363 187.535 72.7472L185.006 73.4322L186.468 80.116L189.502 78.7681C189.728 78.67 189.933 78.5228 190.106 78.3354C190.278 78.1479 190.415 77.9241 190.508 77.6771C190.6 77.4302 190.647 77.1653 190.644 76.8982C190.642 76.631 190.59 76.3672 190.493 76.1225Z" fill="#FF8B7B"/>
<path d="M148.624 172.408C143.84 149.232 140.882 121.288 140.882 121.288L160.499 120.943C160.499 120.943 160.225 158.6 160.266 174.374C160.317 190.777 161.348 226.875 161.348 226.875H155.396C155.396 226.875 147.714 192.682 148.624 172.408Z" fill="#263238"/>
<path d="M147.097 140.431L143.992 145.5C144.917 151.827 146.015 158.795 147.294 165.624C147.83 155.13 147.739 142.938 147.097 140.431Z" fill="black"/>
<path d="M169.288 230.088C169.288 230.088 161.091 227.961 160.474 226.529H155.922L155.952 231.837H158.764L159.194 231.347L159.907 231.837C162.183 231.837 168.231 231.737 169.663 231.175C169.691 230.973 169.671 230.767 169.606 230.577C169.54 230.387 169.431 230.218 169.288 230.088Z" fill="#263238"/>
<path d="M130.378 171.756C132.649 148.446 132.578 132.873 135.344 121.388L153.206 121.093C153.206 121.093 145.767 158.065 142.313 173.449C138.859 188.833 132.947 226.864 132.947 226.864H127.435C127.435 226.864 125.7 189.78 130.378 171.756Z" fill="#263238"/>
<path d="M133.928 125.928C133.534 128.713 132.128 145.188 130.672 151.187C142.581 157.007 160.787 154.718 161.349 150.942C161.182 143.946 160.843 125.928 160.843 125.928H133.928Z" fill="#E0E0E0"/>
<path opacity="0.1" d="M134.591 128.985C135.422 130.47 136.427 131.827 137.58 133.024C137.58 133.024 135.011 132.517 134.591 128.985Z" fill="black"/>
<path opacity="0.1" d="M158.531 132.868C159.214 131.746 159.768 130.536 160.18 129.264C160.18 129.264 160.296 132.11 158.531 132.868Z" fill="black"/>
<path opacity="0.1" d="M134.702 131.085C134.977 132.201 135.383 133.272 135.911 134.271C135.43 133.949 135.053 133.467 134.836 132.895C134.619 132.322 134.572 131.689 134.702 131.085Z" fill="black"/>
<path d="M138.085 230.088C138.085 230.088 132.972 227.961 132.386 226.529H127.834L127.743 231.837H131.47L131.91 231.347L132.613 231.837C134.889 231.837 136.988 231.737 138.434 231.175C138.469 230.976 138.454 230.77 138.393 230.579C138.332 230.389 138.226 230.219 138.085 230.088Z" fill="#263238"/>
<path d="M134.687 74.8859C140.998 74.0226 150.01 74.1062 156.054 75.2535C157.564 75.5551 158.949 76.3718 160.015 77.5882C161.08 78.8046 161.771 80.3592 161.991 82.032C163.26 92.0855 162.168 109.653 161.359 127.337C147.552 132.539 132.988 127.264 132.988 127.264C132.482 123.7 133.615 112.009 134.373 105.77C133.235 99.3262 130.833 91.9462 129.225 83.3855C129.03 82.4278 129.019 81.4357 129.194 80.4732C129.369 79.5108 129.725 78.5996 130.24 77.7984C130.755 76.9973 131.417 76.3241 132.183 75.8224C132.949 75.3207 133.802 75.0016 134.687 74.8859Z" fill="#263238"/>
<path opacity="0.1" d="M134.687 74.8859C140.998 74.0226 150.01 74.1062 156.054 75.2535C157.564 75.5551 158.949 76.3718 160.015 77.5882C161.08 78.8046 161.771 80.3592 161.991 82.032C163.26 92.0855 162.168 109.653 161.359 127.337C147.552 132.539 132.988 127.264 132.988 127.264C132.482 123.7 133.615 112.009 134.373 105.77C133.235 99.3262 130.833 91.9462 129.225 83.3855C129.03 82.4278 129.019 81.4357 129.194 80.4732C129.369 79.5108 129.725 78.5996 130.24 77.7984C130.755 76.9973 131.417 76.3241 132.183 75.8224C132.949 75.3207 133.802 75.0016 134.687 74.8859Z" fill="white"/>
<path d="M140.933 61.6131L148.114 68.1019C147.183 70.8256 146.89 73.6717 150.946 74.7467C151.957 76.2227 150.44 78.8127 148.64 79.8208C144.382 78.7514 141.929 77.4926 140.275 74.9918C140.796 73.0312 141.625 65.6401 140.933 61.6131Z" fill="#FF8B7B"/>
<path opacity="0.2" d="M143.926 64.3201L148.114 68.0964C147.887 68.7261 147.717 69.3791 147.608 70.0458C145.985 70.1739 143.729 68.3749 143.628 66.7374C143.591 65.9182 143.692 65.0986 143.926 64.3201Z" fill="black"/>
<path d="M139.901 57.1907C140.558 62.1534 140.71 65.0943 143.193 67.4224C146.93 70.9259 152.352 68.0741 153.06 62.9666C153.692 58.3827 152.513 51.0361 147.927 49.4988C146.909 49.1579 145.829 49.1073 144.789 49.352C143.749 49.5966 142.782 50.1284 141.98 50.8974C141.177 51.6664 140.566 52.6474 140.202 53.7482C139.838 54.849 139.735 56.0336 139.901 57.1907Z" fill="#FF8B7B"/>
<path d="M139.86 59.4799C140.323 60.0325 140.922 60.4259 141.583 60.6126C142.244 60.7994 142.94 60.7716 143.588 60.5326C142.505 59.3239 143.557 54.9015 142.475 53.1025C144.569 53.5592 152.721 54.8625 153.5 51.749C154.344 48.4071 150.971 45.7392 149.08 45.4886C149.636 46.881 149.586 47.8891 147.512 47.438C145.439 46.9868 136.892 44.8146 137.838 49.2259C135.086 49.2259 134.899 53.6372 136.912 55.7481C138.015 56.8708 139.003 58.1221 139.86 59.4799Z" fill="#263238"/>
<path d="M138.343 49.0142C136.695 48.5631 137.21 46.8921 137.58 46.7195C136.037 47.1316 135.476 48.8026 137.337 49.5712C139.198 50.3398 138.343 49.0142 138.343 49.0142Z" fill="#263238"/>
<path d="M138.632 60.2374C138.785 60.7811 139.035 61.286 139.366 61.7229C139.698 62.1598 140.105 62.52 140.564 62.7828C141.803 63.479 142.703 62.3316 142.586 60.8946C142.49 59.5968 141.737 57.6752 140.381 57.5527C140.083 57.5363 139.786 57.6025 139.517 57.7453C139.248 57.888 139.016 58.1028 138.842 58.3698C138.668 58.6369 138.558 58.9478 138.521 59.274C138.484 59.6003 138.522 59.9315 138.632 60.2374Z" fill="#FF8B7B"/>
<path d="M146.228 57.3689C146.258 57.7755 146.48 58.0874 146.733 58.0652C146.986 58.0429 147.148 57.6864 147.118 57.2854C147.087 56.8843 146.865 56.5669 146.612 56.5891C146.359 56.6114 146.197 56.9623 146.228 57.3689Z" fill="#263238"/>
<path d="M150.637 57.252C150.668 57.6586 150.89 57.9705 151.143 57.9426C151.396 57.9148 151.553 57.5694 151.522 57.1628C151.492 56.7562 151.269 56.4499 151.017 56.4722C150.764 56.4945 150.607 56.8454 150.637 57.252Z" fill="#263238"/>
<path d="M149.742 57.7978C150.274 58.995 150.955 60.1048 151.765 61.0951C151.163 61.8304 150.03 61.6521 150.03 61.6521L149.742 57.7978Z" fill="#FF5652"/>
<path d="M145.545 56.0768C145.51 56.0875 145.473 56.0875 145.438 56.0768C145.411 56.0657 145.387 56.0488 145.366 56.0269C145.345 56.005 145.328 55.9787 145.317 55.9495C145.306 55.9203 145.3 55.8889 145.3 55.8572C145.3 55.8254 145.306 55.794 145.317 55.7649C145.438 55.4072 145.635 55.0865 145.891 54.8289C146.147 54.5713 146.455 54.3843 146.789 54.2833C146.846 54.2707 146.905 54.2836 146.953 54.3191C147.002 54.3547 147.035 54.4099 147.047 54.4727C147.058 54.5354 147.046 54.6006 147.014 54.6539C146.982 54.7072 146.932 54.7442 146.875 54.7567C146.61 54.8392 146.367 54.9898 146.166 55.1961C145.964 55.4023 145.81 55.6584 145.717 55.9431C145.701 55.9796 145.676 56.011 145.646 56.0344C145.616 56.0577 145.581 56.0723 145.545 56.0768Z" fill="#263238"/>
<path d="M153.196 55.4307C153.16 55.4309 153.124 55.4207 153.092 55.4012C153.06 55.3817 153.033 55.3535 153.014 55.3193C152.88 55.0589 152.691 54.8377 152.463 54.674C152.235 54.5102 151.975 54.4088 151.704 54.378C151.676 54.3772 151.648 54.3703 151.622 54.3576C151.595 54.3449 151.572 54.3267 151.552 54.3039C151.532 54.2811 151.517 54.2543 151.507 54.225C151.496 54.1956 151.491 54.1644 151.492 54.1329C151.495 54.0689 151.52 54.0085 151.562 53.9648C151.605 53.9211 151.661 53.8974 151.72 53.899C152.062 53.9334 152.392 54.0575 152.683 54.261C152.973 54.4644 153.215 54.7413 153.388 55.0686C153.417 55.1229 153.426 55.1873 153.413 55.2485C153.399 55.3097 153.365 55.3629 153.318 55.3972C153.282 55.4238 153.239 55.4357 153.196 55.4307Z" fill="#263238"/>
<path d="M140.275 74.9918C140.275 74.9918 147.644 87.3233 150.445 96.0234C153.206 85.8139 153.525 77.643 150.951 74.7467C150.122 75.8997 146.784 77.4592 140.275 74.9918Z" fill="#E0E0E0"/>
<path d="M137.762 84.104L137.049 86.3319L136.341 88.6489C135.87 90.1918 135.44 91.7402 135.041 93.2607C134.839 94.0238 134.662 94.7813 134.5 95.5276C134.338 96.274 134.181 97.0148 134.07 97.7222C133.959 98.4295 133.873 99.1146 133.817 99.7273C133.788 100.196 133.788 100.667 133.817 101.136L133.554 100.323C133.342 99.8832 133.124 99.7663 133.114 99.7663C133.104 99.7663 133.185 99.8777 133.342 100C133.812 100.306 134.313 100.553 134.833 100.735C136.178 101.233 137.552 101.631 138.945 101.927C140.427 102.25 141.954 102.484 143.497 102.763C145.039 103.041 146.627 103.236 148.154 103.476H148.225C148.758 103.56 149.247 103.849 149.606 104.292C149.964 104.736 150.168 105.304 150.182 105.897C150.196 106.491 150.019 107.07 149.682 107.533C149.345 107.996 148.87 108.313 148.341 108.427C146.693 108.772 145.031 109.025 143.36 109.185C141.691 109.352 140.007 109.435 138.303 109.424C136.506 109.421 134.712 109.247 132.942 108.906C131.903 108.693 130.886 108.362 129.908 107.92C129.256 107.625 128.641 107.239 128.077 106.773C127.246 106.097 126.57 105.216 126.105 104.2C126.019 104.011 125.949 103.813 125.897 103.609L125.842 103.381C125.546 102.169 125.385 100.921 125.361 99.666C125.337 98.6193 125.372 97.572 125.467 96.5302C125.629 94.6271 125.908 92.7384 126.302 90.8769C126.661 89.0611 127.116 87.3066 127.607 85.5744C127.86 84.7111 128.112 83.8533 128.396 83.0012C128.679 82.149 128.962 81.3302 129.311 80.4112C129.767 79.2106 130.63 78.2526 131.716 77.7398C132.802 77.227 134.027 77.1995 135.131 77.6633C136.235 78.127 137.132 79.0456 137.633 80.2247C138.133 81.4038 138.197 82.751 137.812 83.9814L137.762 84.104Z" fill="#E0E0E0"/>
<path d="M148.872 104.194L153.343 104.807L150.875 111.106C150.875 111.106 146.794 109.992 146.5 107.519C146.471 107.246 146.53 106.97 146.667 106.74L147.82 104.74C147.931 104.549 148.089 104.397 148.275 104.3C148.461 104.204 148.668 104.167 148.872 104.194Z" fill="#FF8B7B"/>
<path d="M156.696 109.469L155.492 111.519C155.259 111.912 154.906 112.203 154.497 112.337C154.088 112.472 153.648 112.442 153.257 112.254L150.875 111.106L153.343 104.807L156.129 106.706C156.333 106.845 156.51 107.027 156.649 107.241C156.788 107.456 156.887 107.699 156.94 107.956C156.992 108.214 156.998 108.48 156.956 108.74C156.914 108.999 156.826 109.247 156.696 109.469Z" fill="#FF8B7B"/>
<path d="M140.634 73.0758C139.695 73.2401 138.834 73.7507 138.192 74.524C140.194 77.4672 143.049 79.5696 146.283 80.4836C146.051 79.6315 146.748 77.1418 147.517 76.2506C144.69 75.7883 140.634 73.0758 140.634 73.0758Z" fill="#FAFAFA"/>
<path d="M148.402 73.3821C149.361 73.5741 150.272 73.9859 151.077 74.5908C151.077 74.5908 153.909 78.0719 150.572 80.038C150.799 79.1858 149.054 76.9134 147.492 76.2506C150.314 75.7883 148.402 73.3821 148.402 73.3821Z" fill="#FAFAFA"/>
<path d="M147.805 78.2334C145.57 76.9134 142.804 75.4819 143.572 77.7934C144.341 80.1049 143.325 80.9069 144.326 81.6922C145.327 82.4776 147.36 80.3221 148.033 80.0213C148.705 79.7205 147.805 78.2334 147.805 78.2334Z" fill="#FF4040"/>
<path d="M149.388 78.2167C151.092 76.9524 153.227 75.5822 152.847 77.838C152.468 80.0937 153.409 80.8791 152.665 81.6422C151.922 82.4052 150.01 80.272 149.403 79.9712C148.796 79.6704 149.388 78.2167 149.388 78.2167Z" fill="#FF4040"/>
<path d="M147.502 78.0552C148.007 77.721 149.241 77.2977 149.853 78.2056C150.465 79.1135 150.268 80.634 149.423 80.8178C149.122 80.885 148.809 80.8609 148.519 80.7481C148.229 80.6353 147.971 80.4381 147.775 80.1773C147.962 79.8444 148.038 79.4496 147.988 79.0617C147.938 78.6738 147.766 78.3175 147.502 78.0552Z" fill="#FF4040"/>
<path d="M133.255 227.042L127.121 227.231L126.797 223.405L133.923 223.873L133.255 227.042Z" fill="black"/>
<path d="M161.566 227.031L154.941 227.231L154.208 223.917L161.606 223.126L161.566 227.031Z" fill="black"/>
<path d="M147.128 102.896C144.03 101.888 140.836 101.28 137.61 101.086C136.922 101.131 136.659 118.247 136.715 125.248C136.715 126.195 146.607 126.006 149.135 125.577C149.277 123.622 149.307 109.352 149.965 104.89C150.015 104.541 149.957 104.184 149.802 103.875C149.646 103.566 149.401 103.324 149.105 103.186C148.478 102.908 147.798 102.808 147.128 102.896Z" fill="white"/>
<path d="M198.909 75.4986H170.831V76.3787H198.909V75.4986Z" fill="#FF4040"/>
<path d="M198.322 76.3787H171.417L172.449 76.9969H197.295L198.322 76.3787Z" fill="#FF4040"/>
<path opacity="0.2" d="M198.322 76.3787H171.417L172.449 76.9969H197.295L198.322 76.3787Z" fill="black"/>
<path d="M186.028 63.0669C186.029 63.3194 185.962 63.5665 185.835 63.777C185.708 63.9875 185.528 64.1518 185.316 64.2492C185.105 64.3466 184.872 64.3727 184.647 64.3241C184.422 64.2755 184.215 64.1545 184.052 63.9763C183.89 63.7982 183.779 63.5709 183.734 63.3233C183.689 63.0758 183.712 62.819 183.799 62.5856C183.887 62.3522 184.035 62.1527 184.226 62.0123C184.416 61.8719 184.64 61.797 184.87 61.7969C185.021 61.7962 185.172 61.8285 185.312 61.892C185.453 61.9555 185.581 62.0489 185.688 62.1669C185.796 62.2849 185.881 62.4252 185.939 62.5796C185.998 62.734 186.028 62.8996 186.028 63.0669Z" fill="#FF4040"/>
<path d="M197.007 71.416C196.227 68.7565 194.745 66.4137 192.749 64.6877L193.063 64.2477C195.139 66.0436 196.682 68.4814 197.493 71.2489L197.007 71.416Z" fill="#FF4040"/>
<path d="M190.994 63.4066C190.427 63.0619 189.837 62.7658 189.229 62.521L189.401 61.9974C190.034 62.2595 190.648 62.5742 191.237 62.9387L190.994 63.4066Z" fill="#FF4040"/>
<path d="M184.869 63.0669C181.823 63.0669 178.902 64.3995 176.748 66.7717C174.595 69.1438 173.385 72.3611 173.385 75.7159H196.354C196.354 72.3611 195.144 69.1438 192.991 66.7717C190.837 64.3995 187.915 63.0669 184.869 63.0669Z" fill="#FF4040"/>
<path opacity="0.3" d="M174.968 74.5852H177.936C178.039 74.5832 178.138 74.5422 178.216 74.4691C178.294 74.396 178.347 74.2953 178.366 74.1842C178.963 70.7197 180.839 67.7009 183.823 65.0775C183.891 65.0176 183.939 64.9351 183.96 64.8423C183.981 64.7496 183.974 64.6518 183.941 64.5637C183.907 64.4756 183.848 64.4019 183.773 64.354C183.698 64.306 183.611 64.2862 183.524 64.2978C181.268 64.6258 179.17 65.7537 177.547 67.5111C175.924 69.2686 174.864 71.56 174.528 74.0393C174.52 74.1079 174.525 74.1776 174.544 74.2436C174.562 74.3097 174.593 74.3706 174.635 74.4223C174.677 74.474 174.728 74.5153 174.785 74.5434C174.843 74.5715 174.905 74.5857 174.968 74.5852Z" fill="white"/>
<path d="M148.331 63.1003C148.568 63.1116 148.805 63.0986 149.039 63.0613C149.071 63.0545 149.098 63.0343 149.116 63.0051C149.134 62.9759 149.141 62.94 149.135 62.9053C149.127 62.869 149.107 62.8372 149.079 62.8157C149.051 62.7943 149.017 62.7845 148.983 62.7884C148.455 62.8749 147.916 62.8286 147.406 62.653C146.897 62.4775 146.43 62.1772 146.04 61.7746C146.029 61.7613 146.015 61.7507 146 61.7435C145.985 61.7362 145.968 61.7325 145.952 61.7325C145.935 61.7325 145.919 61.7362 145.903 61.7435C145.888 61.7507 145.874 61.7613 145.863 61.7746C145.841 61.8013 145.829 61.8361 145.829 61.8721C145.829 61.9082 145.841 61.9429 145.863 61.9696C146.532 62.6669 147.41 63.0693 148.331 63.1003Z" fill="#263238"/>
</svg>
