<svg width="275" height="267" viewBox="0 0 275 267" fill="none" xmlns="http://www.w3.org/2000/svg">
<path d="M137.601 227.967C79.0666 227.967 31.6147 225.264 31.6147 221.931C31.6147 218.598 79.0666 215.896 137.601 215.896C196.136 215.896 243.588 218.598 243.588 221.931C243.588 225.264 196.136 227.967 137.601 227.967Z" fill="#F5F5F5"/>
<path d="M197.879 221.931H200.065" stroke="#FF3E3E" stroke-linecap="round" stroke-linejoin="round"/>
<path d="M204.198 221.931H260.036" stroke="#FF3E3E" stroke-linecap="round" stroke-linejoin="round" stroke-dasharray="7.57 7.57"/>
<path d="M262.103 221.931H264.289" stroke="#FF3E3E" stroke-linecap="round" stroke-linejoin="round"/>
<path d="M67.7656 94.3042L130.838 95.3243L130.083 139.738L67.0105 138.717L67.7656 94.3042Z" fill="#FF3E3E"/>
<path opacity="0.3" d="M92.7673 94.7031L130.901 95.3199L130.146 139.733L92.0123 139.116L92.7673 94.7031Z" fill="white"/>
<path opacity="0.3" d="M87.0208 97.6958L98.0027 97.91L97.9415 100.896L86.9596 100.682L87.0208 97.6958Z" fill="white"/>
<path opacity="0.3" d="M86.6947 132.232L97.675 132.41L97.6243 135.395L86.6439 135.218L86.6947 132.232Z" fill="white"/>
<path d="M79.374 122.733C75.8147 122.733 72.9292 119.548 72.9292 115.62C72.9292 111.692 75.8147 108.508 79.374 108.508C82.9334 108.508 85.8188 111.692 85.8188 115.62C85.8188 119.548 82.9334 122.733 79.374 122.733Z" stroke="white" stroke-miterlimit="10"/>
<path d="M79.1062 109.59V110.785" stroke="white" stroke-linecap="round" stroke-linejoin="round"/>
<path d="M78.8274 120.531V121.726" stroke="white" stroke-linecap="round" stroke-linejoin="round"/>
<path d="M84.8076 115.386H83.5777" stroke="white" stroke-linecap="round" stroke-linejoin="round"/>
<path d="M74.9353 115.391H73.7054" stroke="white" stroke-linecap="round" stroke-linejoin="round"/>
<path d="M79.1118 115.386L79.1067 111.707" stroke="white" stroke-width="0.5" stroke-linecap="round" stroke-linejoin="round"/>
<path d="M78.8713 115.626L76.2038 118.228" stroke="white" stroke-width="0.5" stroke-linecap="round" stroke-linejoin="round"/>
<path d="M78.5159 115.391C78.5159 115.506 78.5508 115.619 78.6163 115.714C78.6818 115.81 78.7748 115.884 78.8837 115.928C78.9926 115.972 79.1124 115.984 79.2279 115.961C79.3435 115.939 79.4497 115.884 79.533 115.802C79.6163 115.721 79.6731 115.617 79.6961 115.505C79.7191 115.392 79.7073 115.275 79.6622 115.169C79.6171 115.062 79.5407 114.972 79.4427 114.908C79.3447 114.844 79.2296 114.81 79.1117 114.81C79.0333 114.809 78.9555 114.824 78.8828 114.853C78.8102 114.882 78.7443 114.924 78.6888 114.979C78.6333 115.033 78.5895 115.097 78.5598 115.168C78.5301 115.239 78.5152 115.315 78.5159 115.391Z" fill="white"/>
<path opacity="0.3" d="M79.374 124.615C74.6614 124.615 70.8411 120.588 70.8411 115.62C70.8411 110.653 74.6614 106.625 79.374 106.625C84.0867 106.625 87.907 110.653 87.907 115.62C87.907 120.588 84.0867 124.615 79.374 124.615Z" fill="white"/>
<path d="M150.24 193.625C149.288 194.334 130.194 192.329 135.131 159.288C135.131 159.288 126.073 161.532 125.1 161.383C125.1 161.383 111.811 181.255 121.487 191.097C131.162 200.94 145.582 201.542 145.582 201.542L150.24 193.625Z" fill="#FF3E3E"/>
<path opacity="0.3" d="M150.24 193.625C149.288 194.334 130.194 192.329 135.131 159.288C135.131 159.288 126.073 161.532 125.1 161.383C125.1 161.383 111.811 181.255 121.487 191.097C131.162 200.94 145.582 201.542 145.582 201.542L150.24 193.625Z" fill="black"/>
<path d="M129.079 164.401C129.03 164.401 134.414 164.502 136.218 162.316C138.022 160.13 139.241 156.222 135.961 153.556C132.682 150.89 113.424 139.373 104.355 138.467C95.2864 137.561 85.5782 143.266 85.5782 143.266L97.4511 151.829L123.017 157.864L129.079 164.401Z" fill="#263238"/>
<path d="M146.49 188.421L145.992 193.198L140.111 192.713L140.996 187.802L146.49 188.421Z" fill="#FFC3BD"/>
<path d="M147.632 192.851L139.099 192.734L138.492 196.936C138.492 196.936 146.484 197.042 149.769 196.616C153.055 196.189 152.541 194.52 152.541 194.52C152.541 194.52 148.693 194.611 147.632 192.851Z" fill="#263238"/>
<path d="M73.1656 204.944C71.8915 192.731 79.451 181.977 90.0502 180.925C100.649 179.873 110.275 188.921 111.549 201.135C112.823 213.348 105.263 224.101 94.6641 225.153C84.0649 226.205 74.4397 217.157 73.1656 204.944Z" fill="#263238"/>
<path d="M105.766 135.049C105.766 135.049 104.88 154.868 116.698 155.433C128.516 155.998 141.215 154.734 141.215 154.734L137.492 190.346L148.572 191.012C148.572 191.012 156.526 160.802 157.778 153.209C159.029 145.617 157.942 140.248 149.726 136.878C141.51 133.508 105.766 135.049 105.766 135.049Z" fill="#FF3E3E"/>
<path d="M171.903 197.927L157.182 156.222L137.503 135.033C137.503 135.033 154.678 135.097 162.932 139.725C171.186 144.353 171.493 149.914 173.007 156.531C174.521 163.148 180.594 194.467 180.594 194.467L171.903 197.927Z" fill="#FF3E3E"/>
<path opacity="0.7" d="M105.765 135.049C105.765 135.049 124.056 134.255 137.47 135.049C137.47 135.049 154.645 135.113 162.899 139.741C171.154 144.369 171.493 149.914 173.007 156.531C174.521 163.148 180.594 194.467 180.594 194.467L171.903 197.927L157.182 156.222C154.705 167.781 148.572 190.991 148.572 190.991L137.492 190.346L141.22 154.756C141.22 154.756 128.527 156.019 116.704 155.454C104.88 154.889 105.765 135.049 105.765 135.049Z" fill="black"/>
<path d="M135.962 102.904L142.756 103.709C142.756 103.709 143.937 115.892 145.036 118.259C145.036 118.259 165.934 121.059 174.494 120.819L178.84 123.698L178.993 128.704L174.734 128.827L173.362 125.655C173.362 125.655 170.487 125.532 169.82 123.954C169.82 123.954 147.616 129.184 139.438 123.213C139.427 123.218 134.497 116.153 135.962 102.904Z" fill="#FFC3BD"/>
<path d="M116.49 70.2786C116.49 70.2786 114.364 72.9445 115.173 75.2531C115.396 75.9115 115.79 76.5027 116.315 76.9697C116.841 77.4366 117.481 77.7636 118.174 77.919C118.174 77.919 118.573 81.614 120.809 81.7206C123.045 81.8273 122.296 73.579 122.296 73.579L116.49 70.2786Z" fill="#263238"/>
<path d="M133.704 135.14L135.196 111.323L144.456 105.319C144.456 105.319 141.428 94.9062 135.634 93.1414C129.839 91.3765 117.201 87.3297 109.537 89.3398C101.874 91.3499 102.754 100.169 104.071 106.711L105.547 107.052C105.547 107.052 105.777 132.831 105.787 135.049L133.704 135.14Z" fill="#263238"/>
<path d="M117.042 90.8114C120.076 93.6745 126.264 95.3807 127.975 93.9571C129.686 92.5335 127.527 91.2272 125.92 89.617C125.051 88.7319 125.078 87.0738 125.28 85.7515C125.387 85.0852 125.544 84.4276 125.75 83.784C131.43 83.4801 133.786 80.8889 134.021 76.3195C134.256 71.7501 132.135 66.445 132.135 66.445L128.123 63.1073C128.123 63.1073 122.656 63.907 118.283 66.8395C115.681 68.567 116.452 71.9687 117.529 74.48C117.985 75.549 118.534 76.5782 119.169 77.5565C119.781 83.8107 117.042 90.8114 117.042 90.8114Z" fill="#FFC3BD"/>
<path d="M130.861 77.5783C130.861 77.5783 128.675 77.6796 127.718 76.3568" stroke="#263238" stroke-linecap="round" stroke-linejoin="round"/>
<path d="M127.379 72.1823C127.379 72.5877 127.631 72.9077 127.926 72.9024C128.221 72.897 128.434 72.561 128.423 72.1556C128.412 71.7503 128.172 71.4302 127.877 71.4356C127.582 71.4409 127.363 71.7769 127.379 72.1823Z" fill="#263238"/>
<path d="M132.365 72.3103C132.365 72.7157 132.616 73.0357 132.911 73.0304C133.207 73.025 133.42 72.689 133.409 72.2836C133.398 71.8782 133.157 71.5582 132.862 71.5635C132.567 71.5689 132.348 71.9102 132.365 72.3103Z" fill="#263238"/>
<path d="M130.632 75.6211L130.856 72.3527L132.458 75.4558C132.208 75.663 131.898 75.7901 131.571 75.8196C131.245 75.8492 130.917 75.7799 130.632 75.6211Z" fill="#ED847E"/>
<path d="M127.642 69.6228C127.223 69.5103 126.776 69.5467 126.382 69.7255C125.987 69.9042 125.671 70.2137 125.488 70.5989" stroke="#263238" stroke-linecap="round" stroke-linejoin="round"/>
<path d="M133.906 70.2256C133.906 70.2256 132.9 69.1588 131.72 69.4308" stroke="#263238" stroke-linecap="round" stroke-linejoin="round"/>
<path d="M117.491 74.48C123.744 74.6986 124.521 67.7833 124.521 67.7833C127.615 69.3828 132.113 66.4503 132.113 66.4503L128.101 63.102C128.101 63.102 122.635 63.9124 118.262 66.8342C115.643 68.5671 116.414 71.9794 117.491 74.48Z" fill="#263238"/>
<path d="M134.125 68.4764C134.125 68.4764 137.361 66.3757 135.934 64.8615C134.507 63.3472 125.767 66.2264 119.235 69.7561C119.235 69.7561 134.196 59.9935 138.263 63.0806C141.625 65.6346 134.169 69.1802 134.393 69.1749L134.125 68.4764Z" fill="#FF3E3E"/>
<path d="M115.873 67.7619C115.882 68.8675 116.097 69.9623 116.507 70.993L131.2 64.0617C130.592 63.376 129.862 62.8019 129.047 62.3662C128.177 61.881 127.232 61.5387 126.248 61.3531C125.205 61.1586 124.137 61.1226 123.083 61.2465C117.71 61.849 115.846 65.8798 115.873 67.7619Z" fill="#FF3E3E"/>
<path d="M180.944 138.344C180.944 138.344 197.54 160.738 183.874 195.208" stroke="#263238" stroke-linecap="round" stroke-linejoin="round"/>
<path d="M159.041 149.978C159.041 149.978 159.041 150.021 159.041 150.106C159.041 150.192 159.041 150.24 159.041 150.336V150.389C159.238 152.546 159.603 154.685 160.134 156.787C160.888 159.896 161.889 162.855 162.714 165.233C166.212 175.336 165.808 186.224 165.808 186.224C166.967 184.816 169.088 183.814 171.739 183.11C181.392 180.524 197.78 181.911 197.78 181.911C200.995 170.911 199.847 153.695 196.649 144.055C193.451 134.415 184.585 136.59 184.585 136.59C184.585 136.59 175.226 136.857 174.051 136.734C171.9 136.48 169.723 136.523 167.584 136.862C160.358 138.152 158.62 143.724 159.041 149.978Z" fill="#FF3E3E"/>
<path d="M86.9887 191.945C103.388 206.384 135.043 207.898 158.598 206.298L171.793 183.142L177.139 173.764L159.964 151.183L159.057 149.994C159.057 149.994 159.057 150.037 159.057 150.122C159.057 150.208 159.057 150.256 159.057 150.352V150.405C159.292 154.43 160.811 186.736 148.671 194.659L148.572 194.728C146.93 195.764 145.023 196.332 143.068 196.37C120.792 197 121.416 168.645 127.079 162.572L88.4263 154.996C88.4263 154.996 80.7953 173.737 86.9887 191.945Z" fill="#FF3E3E"/>
<path d="M129.981 156.425C129.981 156.425 133.606 159.357 131.736 163.292C129.867 167.227 111.844 159.586 104.749 158.195C97.6535 156.803 89.4431 155.444 85.9118 154.734C82.3806 154.025 82.6867 144.145 85.5729 143.271C88.4591 142.397 116.731 147.27 121.421 149.946C124.518 151.781 127.39 153.954 129.981 156.425Z" fill="#263238"/>
<path d="M120.907 76.922C121.252 76.5598 121.461 76.0943 121.5 75.6014C121.539 75.1085 121.405 74.6173 121.121 74.2081C120.246 72.9285 118.48 70.8971 116.786 72.4166C114.413 74.5494 118.464 78.4256 120.142 77.4872C120.423 77.3349 120.681 77.1446 120.907 76.922Z" fill="#FFC3BD"/>
<path opacity="0.2" d="M134.125 68.4764C134.125 68.4764 137.361 66.3757 135.934 64.8615C135.3 64.1897 133.403 64.3283 130.84 65.0427C129.191 65.4756 127.576 66.0226 126.007 66.6796C123.755 67.634 121.361 68.855 119.235 69.7561C119.235 69.7561 134.196 59.9935 138.263 63.0806C141.625 65.6346 134.633 68.9456 134.387 69.1696L134.267 68.7377L134.125 68.4764Z" fill="black"/>
<path d="M132.589 67.5647C132.589 67.5647 135.869 68.0979 133.606 71.5422L132.589 67.5647Z" fill="#263238"/>
<path d="M129.446 65.4639C129.446 65.4639 134.393 63.7684 135.77 64.7281C137.148 65.6879 135.705 67.5167 134.13 68.4604L132.868 68.6204L132.124 66.4343L130.2 66.205L129.446 65.4639Z" fill="#263238"/>
<path opacity="0.3" d="M122.706 62.8568L123.892 64.5683L129.047 62.3822C128.177 61.8971 127.231 61.5548 126.248 61.3692L122.706 62.8568Z" fill="white"/>
<path opacity="0.1" d="M123.854 83.3148C124.195 84.2001 124.684 85.0238 125.302 85.7524C125.409 85.0859 125.566 84.428 125.772 83.7842C125.109 83.739 124.46 83.5801 123.854 83.3148Z" fill="black"/>
<path d="M172.859 130.203C173.078 133.898 174.718 136.921 176.729 137.667C177.077 137.798 177.45 137.854 177.823 137.833C180.304 137.694 182.108 134.063 181.857 129.728C181.605 125.393 179.386 121.992 176.904 122.13C175.893 122.184 175.002 122.818 174.308 123.837C173.286 125.297 172.712 127.633 172.859 130.203Z" fill="#F5F5F5"/>
<path d="M172.859 130.203C173.078 133.898 174.718 136.921 176.729 137.667C179.025 137.539 180.692 134.186 180.457 130.203C180.222 126.22 178.178 123.058 175.882 123.186C175.291 123.229 174.731 123.464 174.291 123.853C173.286 125.297 172.712 127.633 172.859 130.203Z" fill="white"/>
<path d="M84.2663 182.577C88.4918 179.682 104.842 176.84 104.842 176.84C114.774 176.84 123.493 185.558 124.695 197.133C125.679 206.549 121.416 215.096 114.544 218.993C114.544 218.993 113.97 219.228 113.008 219.596C109.368 220.998 100.13 224.394 94.6687 225.141" fill="#263238"/>
<path opacity="0.3" d="M73.1656 204.944C71.8915 192.731 79.451 181.977 90.0502 180.925C100.649 179.873 110.275 188.921 111.549 201.135C112.823 213.348 105.263 224.101 94.6641 225.153C84.0649 226.205 74.4397 217.157 73.1656 204.944Z" fill="black"/>
<path d="M158.145 204.233C156.871 192.02 164.43 181.266 175.029 180.214C185.629 179.162 195.254 188.211 196.528 200.424C197.802 212.637 190.243 223.391 179.643 224.443C169.044 225.495 159.419 216.447 158.145 204.233Z" fill="#263238"/>
<path d="M165.545 184.289L175.319 224.314C176.745 224.54 178.195 224.581 179.632 224.437H179.741C181.616 223.968 180.78 224.474 182.66 223.867C187.444 222.326 194.391 219.601 194.391 219.601C201.754 216.109 205.914 207.615 204.903 197.911C203.679 186.155 195.031 177.373 184.853 178.093C184.853 178.093 180.02 178.962 175.046 180.226C172.859 180.759 170.673 181.393 168.874 182.055C167.684 182.677 166.567 183.426 165.545 184.289Z" fill="#263238"/>
<path opacity="0.3" d="M158.144 204.208C159.237 214.739 166.546 222.912 175.33 224.293C176.756 224.518 178.206 224.56 179.643 224.416H179.752C181.754 224.205 183.699 223.639 185.492 222.747C192.877 219.095 197.551 210.222 196.528 200.412C195.255 188.207 185.65 179.17 175.057 180.204H175.029C172.878 180.416 170.791 181.038 168.885 182.033C167.694 182.658 166.578 183.409 165.556 184.273C160.325 188.709 157.28 196.152 158.144 204.208Z" fill="black"/>
<path d="M160.806 190.186C161.126 189.687 161.492 189.218 161.899 188.783C164.343 185.531 169.929 184.315 173.586 184.603C176.39 184.87 179.081 185.812 181.42 187.344C184.087 189.029 185.995 191.609 188.641 193.379C193.659 196.76 201.273 196.664 206.313 193.182C206.597 192.985 206.868 192.769 207.122 192.537C207.636 192.015 207.978 191.356 208.106 190.644C208.299 189.755 208.229 188.83 207.904 187.978C206.811 184.982 203.165 182.348 200.863 180.743C196.198 177.532 190.71 175.648 185.011 175.299C168.76 174.206 161.828 187.744 160.806 190.186Z" fill="#FF3E3E"/>
<path opacity="0.3" d="M161.932 190.612C165.425 185.696 169.908 184.315 173.565 184.603C176.368 184.87 179.06 185.812 181.398 187.344C184.065 189.029 185.973 191.609 188.619 193.379C193.637 196.76 201.252 196.664 206.292 193.182C206.576 192.985 206.846 192.769 207.101 192.537C207.614 192.015 207.957 191.356 208.084 190.644C208.277 189.755 208.207 188.83 207.882 187.978C206.193 189.882 201.273 194.467 194.61 192.244C186.301 189.444 184.273 181.127 175.39 181.201C168.333 181.281 163.988 186.613 161.932 190.612Z" fill="black"/>
<g opacity="0.3">
<path opacity="0.3" d="M198.485 179.277C196.115 177.634 193.448 176.442 190.625 175.763C187.799 175.061 184.872 174.827 181.966 175.07C179.065 175.342 176.224 176.047 173.542 177.16L172.548 177.587L171.575 178.061C170.919 178.36 170.301 178.733 169.667 179.074C169.033 179.415 168.448 179.837 167.841 180.215C167.234 180.594 166.666 181.036 166.086 181.457C168.47 179.899 171.015 178.59 173.679 177.549C176.338 176.509 179.14 175.857 181.993 175.614C184.841 175.348 187.715 175.528 190.505 176.147C191.905 176.45 193.278 176.863 194.61 177.384C195.961 177.891 197.259 178.525 198.485 179.277Z" fill="black"/>
</g>
<g opacity="0.3">
<path opacity="0.3" d="M180.785 175.464C181.467 173.241 181.876 170.946 182.004 168.629C182.185 166.32 182.223 164.001 182.174 161.698C182.125 159.394 181.961 157.07 181.742 154.766L181.343 151.322C181.168 150.176 181.015 149.029 180.796 147.888L181.294 154.82L181.491 158.275C181.523 159.426 181.595 160.578 181.6 161.73C181.693 164.033 181.649 166.336 181.562 168.661C181.523 169.813 181.431 170.959 181.31 172.105C181.214 173.235 181.039 174.358 180.785 175.464Z" fill="black"/>
</g>
<path opacity="0.3" d="M148.698 194.611C160.112 187.45 160.565 168.976 160.177 156.787C160.106 154.692 160.019 152.788 159.953 151.151C159.834 149.513 159.834 147.868 159.953 146.23C161.107 137.859 167.666 136.852 167.666 136.852H167.639C160.374 138.152 158.636 143.724 159.057 149.978C159.057 149.978 159.057 150.021 159.057 150.106C159.057 150.192 159.057 150.24 159.057 150.336V150.389C159.303 154.414 160.822 186.72 148.698 194.611Z" fill="black"/>
<path opacity="0.2" d="M149.627 131.514C150.584 132.49 162.954 129.989 165.114 131.109C166.026 131.578 166.425 133.242 167.344 135.065C169.924 139.064 173.554 139.693 173.778 139.725C169.448 136.526 168.24 128.827 170.389 123.959C172.537 119.091 180.228 120.355 180.665 120.499C179.354 119.936 177.943 119.627 176.511 119.587C172.351 119.374 167.278 120.515 165.857 123.085C162.971 128.326 150.595 127.148 149.458 128.523C148.321 129.899 148.671 130.539 149.627 131.514Z" fill="black"/>
<path d="M159.314 126.86C160.066 128.213 160.366 129.762 160.172 131.29L149.693 132.442C149.157 131.837 148.761 131.127 148.532 130.36C148.303 129.593 148.246 128.786 148.365 127.995C148.365 127.995 158.745 126.977 159.314 126.86Z" fill="#263238"/>
<path d="M191.133 126.481C191.133 126.481 192.177 124.316 190.926 122.946C193.724 122.701 195.457 122.413 197.261 122.157C197.529 122.951 197.66 123.714 196.714 124.924C195.769 126.135 191.133 126.481 191.133 126.481Z" fill="#263238"/>
<path d="M196.955 140.029C198.77 142.914 200.322 147.531 200.459 154.905" stroke="#FF3E3E" stroke-linecap="round" stroke-linejoin="round"/>
<path d="M190.98 135.273C192.301 135.572 193.514 136.211 194.495 137.124" stroke="#FF3E3E" stroke-linecap="round" stroke-linejoin="round"/>
<path d="M109.461 107.479L116.359 108.3C116.359 108.3 117.562 120.664 118.677 123.069C118.677 123.069 139.892 125.916 148.589 125.665L153 128.587L153.153 133.674L148.829 133.796L147.436 130.597C147.436 130.597 144.517 130.475 143.844 128.87C143.844 128.87 121.301 134.202 112.998 128.123C113.003 128.102 107.991 120.931 109.461 107.479Z" fill="#FFC3BD"/>
<path opacity="0.2" d="M165.633 202.609C165.83 209.316 170.334 214.627 175.696 214.477C176.417 214.456 177.131 214.336 177.817 214.12C182.114 212.787 185.208 207.845 185.038 202.06C184.869 196.461 181.704 191.833 177.544 190.548C176.713 190.287 175.842 190.167 174.969 190.191C169.607 190.346 165.431 195.923 165.633 202.609Z" fill="#FAFAFA"/>
<path d="M170.569 202.609C170.738 208.335 173.849 213.043 177.817 214.136C182.114 212.803 185.208 207.861 185.038 202.076C184.869 196.477 181.704 191.849 177.544 190.564C173.411 191.657 170.399 196.68 170.569 202.609Z" fill="#263238"/>
<path opacity="0.2" d="M81.4075 203.142C81.6098 209.849 86.114 215.165 91.471 215.01C92.192 214.992 92.9065 214.872 93.592 214.653C97.894 213.32 100.988 208.383 100.813 202.593C100.649 197 97.484 192.366 93.3241 191.081C92.4929 190.821 91.6223 190.7 90.7495 190.724C85.387 190.879 81.2107 196.445 81.4075 203.142Z" fill="#FAFAFA"/>
<path d="M86.3436 203.142C86.5186 208.863 89.6234 213.571 93.592 214.664C97.894 213.331 100.988 208.394 100.813 202.603C100.649 197.01 97.484 192.377 93.3241 191.092C89.1861 192.185 86.1687 197.208 86.3436 203.142Z" fill="#263238"/>
<path d="M72.9566 185.472C72.8637 192.068 83.1568 196.434 100.381 199.186C105.024 199.982 109.769 200.036 114.43 199.346C122.083 198.114 125.822 194.958 125.822 194.958C125.822 194.958 123.876 172.164 104.618 169.274C91.4984 167.312 81.6262 172.473 76.6191 178.034C74.2631 180.647 72.984 183.361 72.9566 185.472Z" fill="#FF3E3E"/>
<path opacity="0.3" d="M72.9567 185.472C72.8637 192.068 83.1568 196.434 100.381 199.186C105.024 199.982 109.769 200.036 114.43 199.346C113.604 193.155 109.898 176.92 93.7888 175.235C86.4804 174.467 80.8391 175.907 76.6191 178.034C74.2631 180.647 72.984 183.361 72.9567 185.472Z" fill="black"/>
<g opacity="0.3">
<path opacity="0.3" d="M124.706 195.059C124.352 191.956 123.593 188.91 122.449 185.995C121.323 183.049 119.769 180.277 117.835 177.762C116.858 176.513 115.759 175.357 114.555 174.313C113.362 173.251 112.047 172.328 110.636 171.562C107.828 170.017 104.717 169.07 101.507 168.784C103.08 169.041 104.627 169.43 106.132 169.946C106.892 170.17 107.608 170.517 108.318 170.81C109.031 171.143 109.726 171.511 110.401 171.913C111.09 172.297 111.724 172.761 112.374 173.193C113.025 173.625 113.626 174.137 114.2 174.675C115.367 175.71 116.431 176.851 117.376 178.082C119.296 180.548 120.861 183.259 122.028 186.139C122.633 187.573 123.155 189.04 123.591 190.532C124.055 192.018 124.427 193.53 124.706 195.059Z" fill="black"/>
</g>
<path d="M150.551 187.53L149.414 191.295L137.492 190.324L137.334 185.062L150.551 187.53Z" fill="#FF3E3E"/>
<path d="M79.5708 161.858L53.3379 160.818" stroke="#FF3E3E" stroke-linecap="round" stroke-linejoin="round"/>
<path d="M44.6685 156.158L40.7709 156.003" stroke="#FF3E3E" stroke-linecap="round" stroke-linejoin="round"/>
<path d="M66.9983 157.043L47.6584 156.275" stroke="#FF3E3E" stroke-linecap="round" stroke-linejoin="round"/>
<path d="M53.4636 170.288L37.256 169.647" stroke="#FF3E3E" stroke-linecap="round" stroke-linejoin="round"/>
<path d="M63.4834 170.687L56.4209 170.405" stroke="#FF3E3E" stroke-linecap="round" stroke-linejoin="round"/>
</svg>
